<svg xmlns="http://www.w3.org/2000/svg" xmlns:xlink="http://www.w3.org/1999/xlink" width="1544" height="1020.002" viewBox="0 0 1544 1020.002"><defs><style>.a{fill:#323c50;}.b{filter:url(#e);}.c{filter:url(#c);}.d{filter:url(#a);}</style><filter id="a" x="51" y="21" width="1493" height="930" filterUnits="userSpaceOnUse"><feOffset dx="6" dy="6" input="SourceAlpha"/><feGaussianBlur stdDeviation="15" result="b"/><feFlood flood-opacity="0.161"/><feComposite operator="in" in2="b"/><feComposite in="SourceGraphic"/></filter><filter id="c" x="0" y="0" width="881" height="1020.002" filterUnits="userSpaceOnUse"><feOffset dy="30" input="SourceAlpha"/><feGaussianBlur stdDeviation="30" result="d"/><feFlood flood-opacity="0.161"/><feComposite operator="in" in2="d"/><feComposite in="SourceGraphic"/></filter><filter id="e" x="44.999" y="29.999" width="791" height="930.003" filterUnits="userSpaceOnUse"><feOffset dy="15" input="SourceAlpha"/><feGaussianBlur stdDeviation="15" result="f"/><feFlood flood-opacity="0.161"/><feComposite operator="in" in2="f"/><feComposite in="SourceGraphic"/></filter></defs><g transform="translate(-169 -60)"><g class="d" transform="matrix(1, 0, 0, 1, 169, 60)"><rect class="a" width="1403" height="840" rx="24" transform="translate(90 60)"/></g><g class="c" transform="matrix(1, 0, 0, 1, 169, 60)"><path class="a" d="M701,878H24A24,24,0,0,1,0,854V62A24,24,0,0,1,24,38H701V878Z" transform="translate(90 22)"/></g><g class="b" transform="matrix(1, 0, 0, 1, 169, 60)"><path class="a" d="M701,1014l-375.332,0A267.861,267.861,0,0,0,0,821.33V198a24,24,0,0,1,24-24H528c.264,95.121,77.87,172.728,173,173v667Z" transform="translate(90 -114)"/></g></g></svg>