<?xml version="1.0" encoding="UTF-8"?>
<svg width="1200pt" height="1200pt" version="1.1" viewBox="0 0 1200 1200" xmlns="http://www.w3.org/2000/svg">
 <path d="m600 32.176c-312.99 0-568.74 254.77-568.74 567.82 0 312.99 254.87 567.82 568.74 567.82 312.99 0 567.82-254.83 567.82-567.82s-254.83-567.82-567.82-567.82zm0 131.93c240.45 0 435.9 195.45 435.9 435.9s-195.45 435.9-435.9 435.9-435.9-195.45-435.9-435.9 195.45-435.9 435.9-435.9zm0 115.52c-36.148 0-66.43 30.281-66.43 66.43v181.95h-181.93c-36.148 0-66.449 30.262-66.449 66.43s30.301 66.43 66.449 66.43h181.93v181.93c0 36.148 30.281 66.43 66.43 66.43s66.43-30.281 66.43-66.43v-181.93h181.93c36.148 0 66.449-30.262 66.449-66.43s-31.105-65.492-66.449-65.492h-181.93v-182.89c0-36.148-30.281-66.43-66.43-66.43z" fill="#fff"/>
</svg>
