<svg xmlns="http://www.w3.org/2000/svg" version="1.1" viewBox="0 0 64 64" x="0px" y="0px"><title>add</title><path d="M32 1.716c-16.693 0-30.333 13.588-30.333 30.284 0 16.693 13.593 30.284 30.333 30.284 16.693 0 30.284-13.591 30.284-30.284s-13.591-30.284-30.284-30.284zM32 8.752c12.824 0 23.248 10.424 23.248 23.248s-10.424 23.248-23.248 23.248c-12.824 0-23.248-10.424-23.248-23.248s10.424-23.248 23.248-23.248zM32 14.913c-1.928 0-3.543 1.615-3.543 3.543v9.704h-9.703c-1.928 0-3.544 1.614-3.544 3.543s1.616 3.543 3.544 3.543h9.703v9.703c0 1.928 1.615 3.543 3.543 3.543s3.543-1.615 3.543-3.543v-9.703h9.703c1.928 0 3.544-1.614 3.544-3.543s-1.659-3.493-3.544-3.493h-9.703v-9.754c0-1.928-1.615-3.543-3.543-3.543z"></path></svg>