<?xml version="1.0" encoding="utf-8"?>
<!-- Generator: Adobe Illustrator 26.0.1, SVG Export Plug-In . SVG Version: 6.00 Build 0)  -->
<svg version="1.1" id="Layer_1" xmlns="http://www.w3.org/2000/svg" xmlns:xlink="http://www.w3.org/1999/xlink" x="0px" y="0px"
	 viewBox="0 0 100 100" style="enable-background:new 0 0 100 100;" xml:space="preserve">
<g>
	<path d="M48.4,42.7c-0.1-0.9-0.2-1.8-0.2-2.7s0-1.8,0.2-2.8H23.3l-2.1-8.1c-0.3-1.2-1.4-2-2.6-2H9c-1.5,0-2.7,1.2-2.7,2.7
		s1.2,2.7,2.7,2.7h7.4l2.1,8.1c0,0,0,0,0,0l6.6,25.6c0.3,1.2,1.4,2,2.7,2h0.3c-0.4,1-0.6,2-0.6,3.2c0,4.8,3.9,8.6,8.6,8.6
		s8.6-3.9,8.6-8.6c0-1.1-0.2-2.2-0.6-3.2h6.5c-0.4,1-0.6,2-0.6,3.2c0,4.8,3.9,8.6,8.6,8.6s8.6-3.9,8.6-8.6c0-1.1-0.2-2.2-0.6-3.2
		h0.3c1.2,0,2.3-0.8,2.7-2l0.3-1.1c-2.7-0.4-5.2-1.2-7.5-2.3C54.8,59.1,49.3,51.5,48.4,42.7L48.4,42.7z M39.3,71.5
		c0,1.7-1.4,3.2-3.2,3.2c-1.7,0-3.2-1.4-3.2-3.2c0-1.8,1.4-3.2,3.2-3.2C37.9,68.3,39.3,69.7,39.3,71.5z M61.9,71.5
		c0,1.7-1.4,3.2-3.2,3.2c-1.8,0-3.2-1.4-3.2-3.2c0-1.8,1.4-3.2,3.2-3.2C60.4,68.3,61.9,69.7,61.9,71.5z"/>
	<path d="M73.7,19.9c-11,0-20,9-20,20s9,20,20,20c11.1,0,20-9,20-20C93.7,28.9,84.8,19.9,73.7,19.9z M79.7,42.7h-3.2v3.2
		c0,1.5-1.2,2.7-2.7,2.7c-1.5,0-2.7-1.2-2.7-2.7v-3.2h-3.2c-1.5,0-2.7-1.2-2.7-2.7c0-1.5,1.2-2.7,2.7-2.7H71V34
		c0-1.5,1.2-2.7,2.7-2.7c1.5,0,2.7,1.2,2.7,2.7v3.2h3.2c1.5,0,2.7,1.2,2.7,2.7C82.4,41.4,81.2,42.7,79.7,42.7z"/>
</g>
</svg>
