<svg xmlns="http://www.w3.org/2000/svg" xmlns:xlink="http://www.w3.org/1999/xlink" version="1.1" x="0px" y="0px" viewBox="0 0 48 48" style="enable-background:new 0 0 48 48;" xml:space="preserve"><path d="M44,21.5H10.03l7.73-7.73c0.98-0.98,0.98-2.56,0-3.54c-0.98-0.98-2.56-0.98-3.54,0l-12,12c-0.12,0.12-0.22,0.25-0.31,0.38  c-0.04,0.06-0.06,0.12-0.1,0.18c-0.05,0.08-0.1,0.16-0.13,0.25c-0.03,0.08-0.05,0.16-0.08,0.25c-0.02,0.07-0.05,0.14-0.07,0.22  c-0.06,0.32-0.06,0.66,0,0.98c0.02,0.08,0.04,0.15,0.07,0.22c0.02,0.08,0.04,0.17,0.08,0.25c0.04,0.09,0.09,0.17,0.13,0.25  c0.03,0.06,0.06,0.12,0.1,0.18c0.09,0.14,0.2,0.27,0.31,0.38l12,12c0.49,0.49,1.13,0.73,1.77,0.73s1.28-0.24,1.77-0.73  c0.98-0.98,0.98-2.56,0-3.54l-7.73-7.73H44c1.38,0,2.5-1.12,2.5-2.5S45.38,21.5,44,21.5z"></path></svg>