<?xml version="1.0" encoding="UTF-8"?>
<svg width="1200pt" height="1200pt" version="1.1" viewBox="0 0 1200 1200" xmlns="http://www.w3.org/2000/svg">
 <path d="m1100 537.5h-849.25l193.25-193.25c24.5-24.5 24.5-64 0-88.5s-64-24.5-88.5 0l-300 300c-3 3-5.5 6.25-7.75 9.5-1 1.5-1.5 3-2.5 4.5-1.25 2-2.5 4-3.25 6.25-0.75 2-1.25 4-2 6.25-0.5 1.75-1.25 3.5-1.75 5.5-1.5 8-1.5 16.5 0 24.5 0.5 2 1 3.75 1.75 5.5 0.5 2 1 4.25 2 6.25 1 2.25 2.25 4.25 3.25 6.25 0.75 1.5 1.5 3 2.5 4.5 2.25 3.5 5 6.75 7.75 9.5l300 300c12.25 12.25 28.25 18.25 44.25 18.25s32-6 44.25-18.25c24.5-24.5 24.5-64 0-88.5l-193.25-193.25h849.25c34.5 0 62.5-28 62.5-62.5s-28-62.5-62.5-62.5z" fill="#fff"/>
</svg>
