<?xml version="1.0" encoding="UTF-8"?>
<svg width="1200pt" height="1200pt" version="1.1" viewBox="0 0 1200 1200" xmlns="http://www.w3.org/2000/svg">
 <g fill="#fff">
  <path d="m1003.2 114h-240v-2.3984c0-45.602-36-81.602-81.602-81.602h-163.2c-45.602 0-81.602 36-81.602 81.602v2.3984h-240c-25.199 0-45.602 20.398-45.602 45.602v45.602c0 25.199 20.398 45.602 45.602 45.602h806.4c25.199 0 45.602-20.398 45.602-45.602v-45.602c0.003906-25.203-20.398-45.602-45.598-45.602z"/>
  <path d="m943.2 313.2h-686.4c-13.199 0-22.801 10.801-21.602 24l33.602 694.8c3.6016 76.801 67.199 138 144 138h373.2c76.801 0 140.4-60 144-138l33.602-694.8c2.3984-12-8.4023-24-20.402-24zm-417.6 670.8c0 21.602-16.801 38.398-38.398 38.398-21.602 0-38.398-16.801-38.398-38.398l-0.003907-483.6c0-21.602 16.801-38.398 38.398-38.398 21.602 0 38.398 16.801 38.398 38.398zm225.6 0c0 21.602-16.801 38.398-38.398 38.398-21.602 0-38.398-16.801-38.398-38.398l-0.003906-483.6c0-21.602 16.801-38.398 38.398-38.398 21.602 0 38.398 16.801 38.398 38.398z"/>
 </g>
</svg>
