<svg xmlns="http://www.w3.org/2000/svg" xmlns:xlink="http://www.w3.org/1999/xlink" xml:space="preserve" version="1.1" style="shape-rendering:geometricPrecision;text-rendering:geometricPrecision;image-rendering:optimizeQuality;" viewBox="0 0 847 847" x="0px" y="0px" fill-rule="evenodd" clip-rule="evenodd"><defs><style type="text/css">
   
    .fil0 {fill:black}
   
  </style></defs><g><path class="fil0" d="M809 735l-312 -312 312 -311c20,-21 20,-54 0,-74l0 0c-20,-21 -54,-21 -74,0l-312 311 -311 -311c-21,-21 -54,-21 -74,0l0 0c-21,20 -21,53 0,74l311 311 -311 312c-21,20 -21,54 0,74l0 0c20,20 53,20 74,0l311 -312 312 312c20,20 54,20 74,0l0 0c20,-20 20,-54 0,-74z"></path></g></svg>