<?xml version="1.0" encoding="UTF-8"?>
<svg width="1200pt" height="1200pt" version="1.1" viewBox="0 0 1200 1200" xmlns="http://www.w3.org/2000/svg">
 <g fill="#d2d2d2">
  <path d="m530.36 75h-324.11c-72.375 0-131.25 58.875-131.25 131.25v324.11c0 20.699 16.801 37.5 37.5 37.5h417.86c20.699 0 37.5-16.801 37.5-37.5v-417.86c0-20.699-16.801-37.5-37.5-37.5z"/>
  <path d="m993.75 75h-324.11c-20.738 0-37.5 16.801-37.5 37.5v417.86c0 20.699 16.762 37.5 37.5 37.5h417.86c20.738 0 37.5-16.801 37.5-37.5v-324.11c0-72.375-58.875-131.25-131.25-131.25z"/>
  <path d="m530.36 632.14h-417.86c-20.699 0-37.5 16.762-37.5 37.5v324.11c0 72.375 58.875 131.25 131.25 131.25h324.11c20.699 0 37.5-16.762 37.5-37.5v-417.86c0-20.699-16.801-37.5-37.5-37.5z"/>
  <path d="m1101.9 635.02c-14.023-5.7734-30.148-2.5859-40.875 8.1367l-417.86 417.83c-10.727 10.727-13.949 26.852-8.1367 40.875 5.8125 14.023 19.5 23.137 34.648 23.137h324.11c72.375 0 131.25-58.875 131.25-131.25v-324.11c0-15.148-9.1133-28.836-23.137-34.613z"/>
 </g>
</svg>
