<?xml version="1.0" encoding="UTF-8"?>
<svg width="100pt" height="100pt" version="1.1" viewBox="0 0 100 100" xmlns="http://www.w3.org/2000/svg">
 <g fill="#fff">
  <path d="m44.195 6.25h-27.008c-6.0312 0-10.938 4.9062-10.938 10.938v27.008c0 1.7266 1.3984 3.125 3.125 3.125h34.82c1.7266 0 3.125-1.3984 3.125-3.125v-34.82c0-1.7266-1.3984-3.125-3.125-3.125z"/>
  <path d="m82.812 6.25h-27.008c-1.7266 0-3.125 1.3984-3.125 3.125v34.82c0 1.7266 1.3984 3.125 3.125 3.125h34.82c1.7266 0 3.125-1.3984 3.125-3.125v-27.008c0-6.0312-4.9062-10.938-10.938-10.938z"/>
  <path d="m44.195 52.68h-34.82c-1.7266 0-3.125 1.3984-3.125 3.125v27.008c0 6.0312 4.9062 10.938 10.938 10.938h27.008c1.7266 0 3.125-1.3984 3.125-3.125v-34.82c0-1.7266-1.3984-3.125-3.125-3.125z"/>
  <path d="m91.82 52.918c-1.168-0.48047-2.5117-0.21484-3.4062 0.67969l-34.82 34.816c-0.89453 0.89453-1.1641 2.2383-0.67969 3.4062 0.48438 1.1719 1.625 1.9297 2.8906 1.9297h27.008c6.0312 0 10.938-4.9062 10.938-10.938v-27.008c0-1.2656-0.75781-2.4062-1.9297-2.8867z"/>
 </g>
</svg>
