<?xml version="1.0" encoding="UTF-8"?>
<svg width="1200pt" height="1200pt" version="1.1" viewBox="0 0 1200 1200" xmlns="http://www.w3.org/2000/svg">
    <path
        d="m1152.5 620.98c-6.2109-33.75-15.586-66.68-28.008-98.438-24.375-62.812-59.297-120.23-103.95-170.62-43.359-49.102-96.914-91.523-154.8-122.58-60.352-32.344-125.51-53.203-193.83-61.992-68.32-8.9062-140.27-4.8047-207.89 11.953-64.805 16.172-127.85 44.648-182.34 82.383-55.195 38.086-102.77 85.195-141.33 139.69-38.789 54.844-67.148 115.78-84.258 181.05-19.219 73.242-23.203 149.18-11.953 225.7 6.0938 42.188 17.344 83.906 33.164 123.75 7.8516 19.922 16.875 39.375 26.719 57.891 5.625 10.547 10.547 19.102 15.352 27.07 0.46875 0.70312 0.82031 1.4062 1.2891 2.1094 3.8672 6.6797 10.43 17.812 25.312 18.633 3.8672 0.23438 7.7344 0.23438 11.602 0.23438 3.75 0 7.5-0.11719 11.133-0.11719 3.6328-0.11719 7.0312-0.11719 10.547-0.11719h830.39c4.5703 0 9.2578 0 13.828 0.11719 9.2578 0.11719 18.867 0.11719 28.477-0.11719 3.6328-0.11719 12.188-0.35156 19.336-7.5 3.8672-3.8672 6.5625-8.6719 8.6719-12.539 0.46875-0.9375 0.9375-1.7578 1.5234-2.6953 2.8125-4.8047 5.625-9.7266 8.4375-14.648 5.625-9.9609 10.312-18.984 14.531-27.656 19.102-39.258 33.633-79.805 43.008-120.59s14.297-82.734 14.414-124.8c0.11719-0.82031 0.11719-1.7578 0.11719-2.6953-0.11719-35.156-3.2812-69.727-9.4922-103.48zm-239.88 81.094c9.8438-26.367 34.336-43.594 62.461-43.945l0.70312 0.11719h1.0547c30.938 1.4062 57.422 23.672 62.93 52.969 0.82031 4.2188 1.1719 8.5547 1.1719 12.773 0 23.32-11.953 45.469-32.109 57.539-23.789 14.414-54.727 11.719-76.758-6.4453-20.508-17.109-28.711-47.812-19.453-73.008zm16.992-226.41c-6.5625 26.719-30.234 46.641-58.594 49.688-26.953 2.8125-54.609-13.125-65.742-37.852-11.602-25.547-6.4453-55.078 13.242-75.234l0.82031-0.46875 0.82031-0.70312c22.969-20.859 57.539-23.672 82.148-6.7969 22.969 15.82 34.102 44.531 27.305 71.367zm-266.6 206.13c-6.2109 24.492-12.539 49.453-18.633 73.594l-2.1094 8.5547 6.7969 5.625c15.352 12.891 25.312 30.469 28.008 49.57 5.0391 36.68-16.875 72.305-52.148 84.492-33.516 11.719-71.953-2.2266-91.523-33.398l-0.23438-0.46875c-0.11719-0.11719-0.11719-0.23438-0.23438-0.35156l-0.11719-0.23437c-12.539-21.797-13.828-48.516-3.5156-71.484 9.9609-22.617 30.352-38.672 56.133-44.062l8.7891-1.875 1.9922-8.7891c1.2891-5.8594 2.9297-11.953 4.5703-17.812 1.0547-3.6328 1.9922-7.5 3.0469-11.367 2.8125-11.25 5.625-22.5 8.4375-33.633 2.2266-9.0234 4.5703-17.93 6.7969-26.953 4.1016-16.523 8.3203-33.047 12.539-49.57 4.2188-16.641 8.4375-33.398 12.656-50.156 1.4062-5.7422 3.5156-10.078 6.6797-13.477 8.3203-9.1406 23.32-10.195 33.281-2.5781 7.7344 6.0938 11.133 16.172 8.7891 26.367-0.35156 1.2891-0.70312 2.6953-1.0547 3.9844-0.35156 1.5234-0.82031 3.0469-1.1719 4.5703-5.1562 20.273-10.312 40.664-15.352 61.055-4.3359 16.172-8.3203 32.344-12.422 48.398zm3.1641-331.52v1.0547c-1.4062 30.938-23.672 57.422-52.969 62.93-27.656 5.2734-55.898-7.1484-70.312-30.938-14.414-23.789-11.836-54.609 6.4453-76.758 17.227-20.742 47.93-28.945 73.125-19.57 26.367 9.8438 43.594 34.336 43.945 62.461zm-359.77 48.984c9.0234-4.1016 18.633-6.0938 28.125-6.0938 17.227 0 34.102 6.6797 47.109 19.336l0.46875 0.82031 0.70312 0.82031c20.859 22.969 23.672 57.422 6.7969 82.148-15.938 23.086-44.648 34.102-71.484 27.422-26.719-6.5625-46.641-30.234-49.688-58.594-2.5781-26.953 13.359-54.609 37.969-65.859zm-47.695 382.27c-23.789 14.414-54.727 11.719-76.758-6.4453-20.742-17.227-28.945-47.93-19.57-73.125 9.8438-26.367 34.336-43.594 62.461-43.945l0.70313 0.11719h1.0547c30.938 1.4062 57.422 23.672 62.93 52.969 5.3906 27.891-7.0312 56.133-30.82 70.43z"
        fill="#fff"/>
</svg>
