<svg xmlns="http://www.w3.org/2000/svg" xmlns:xlink="http://www.w3.org/1999/xlink" width="40.667" height="40.667" viewBox="0 0 40.667 40.667">
  <defs>
    <style>
      .cls-1 {
        fill: #fff;
      }

      .cls-2 {
        fill: #6c5fcf;
      }

      .cls-3 {
        clip-path: url(#clip-path);
      }
    </style>
    <clipPath id="clip-path">
      <rect id="Rectangle_61" data-name="Rectangle 61" class="cls-1" width="27.146" height="27.146" transform="translate(0)"/>
    </clipPath>
  </defs>
  <g id="Group_843" data-name="Group 843" transform="translate(0 -477.135)">
    <rect id="Rectangle_26" data-name="Rectangle 26" class="cls-2" width="40.667" height="40.667" rx="7" transform="translate(0 477.135)"/>
    <g id="Mask_Group_14" data-name="Mask Group 14" class="cls-3" transform="translate(6.76 483.896)">
      <path id="np_user_750578_FFFFFF" class="cls-1" d="M18.861,19.173a.072.072,0,0,1-.052-.072V18.078a7.845,7.845,0,0,0,1.312-2.6,5.3,5.3,0,0,0,1.136-2.294,3.681,3.681,0,0,0-.2-3.223l-.033-.044c.349-1.68.784-5.652-2.234-7.665A1.854,1.854,0,0,0,19.323.9a.179.179,0,0,0-.063-.127.189.189,0,0,0-.134-.041A25.484,25.484,0,0,1,13.5.785,4.025,4.025,0,0,0,9.159,3.26,2.744,2.744,0,0,0,7.371,4.269C6.546,5.284,6.3,6.9,6.62,9.074c.021.275.055.55.1.825l-.033.041a3.724,3.724,0,0,0-.2,3.223,5.269,5.269,0,0,0,1.133,2.29v0A7.861,7.861,0,0,0,8.938,18.07v1.007a.071.071,0,0,1-.053.072C6.306,19.767.3,21.67.3,26.423a.938.938,0,0,0,.938.938H26.51a.938.938,0,0,0,.938-.938c0-4.753-6-6.655-8.587-7.249Zm-4.986,3.644A4.953,4.953,0,0,1,9.815,20.8a1.922,1.922,0,0,0,.883-1.051,6.345,6.345,0,0,0,1.356.677,5.46,5.46,0,0,0,3.642,0,6.5,6.5,0,0,0,1.35-.682,1.921,1.921,0,0,0,.888,1.064,4.95,4.95,0,0,1-4.06,2.011ZM8.113,12.729c-.333-1.174-.192-1.6-.079-1.749a.383.383,0,0,1,.33-.144h.079a.178.178,0,0,0,.187-.164c0-.025.209-2.555,1.708-3.466a3.046,3.046,0,0,1,2.858.053,8.358,8.358,0,0,0,5.162.7,2.384,2.384,0,0,1,.781,2.607v.035a.179.179,0,0,0,.184.24.43.43,0,0,1,.4.141c.113.148.254.575-.079,1.749-.427,1.5-.772,1.65-.869,1.65a.176.176,0,0,0-.162.151,5.733,5.733,0,0,1-3.482,4.3,3.757,3.757,0,0,1-2.511,0,5.607,5.607,0,0,1-3.477-4.3.177.177,0,0,0-.162-.151c-.1-.008-.443-.148-.869-1.652Z" transform="translate(-0.302 -0.467)"/>
    </g>
  </g>
</svg>
