<svg xmlns="http://www.w3.org/2000/svg" xmlns:xlink="http://www.w3.org/1999/xlink" width="40.667" height="40.667" viewBox="0 0 40.667 40.667">
  <defs>
    <style>
      .cls-1, .cls-4 {
        fill: #fff;
      }

      .cls-1 {
        stroke: #707070;
      }

      .cls-2 {
        fill: #6c5fcf;
      }

      .cls-3 {
        clip-path: url(#clip-path);
      }
    </style>
    <clipPath id="clip-path">
      <rect id="Rectangle_62" data-name="Rectangle 62" class="cls-1" width="28.479" height="28.479"/>
    </clipPath>
  </defs>
  <g id="Group_840" data-name="Group 840" transform="translate(0 -237.356)">
    <rect id="Rectangle_26" data-name="Rectangle 26" class="cls-2" width="40.667" height="40.667" rx="5" transform="translate(0 237.356)"/>
    <g id="Mask_Group_9" data-name="Mask Group 9" class="cls-3" transform="translate(6.094 243.445)">
      <g id="np_shirt_2128100_FFFFFF" transform="translate(0.901)">
        <path id="Path_39" data-name="Path 39" class="cls-4" d="M20.326,5.578A18.455,18.455,0,0,1,17.256,1.4L16.01,2.641l1.736,3.738Z" transform="translate(-7.654 -0.995)"/>
        <path id="Path_40" data-name="Path 40" class="cls-4" d="M19.314.735a18.09,18.09,0,0,0,3.115,4.183A17.191,17.191,0,0,0,25.543.735Z" transform="translate(-8.956 -0.735)"/>
        <path id="Path_41" data-name="Path 41" class="cls-4" d="M28.505,6.379l1.736-3.738L28.995,1.4a18.491,18.491,0,0,1-3.07,4.183Z" transform="translate(-11.562 -0.995)"/>
        <path id="Path_42" data-name="Path 42" class="cls-4" d="M37.945,13.278l-2-4.9A6.986,6.986,0,0,0,30.737,4.11L28.868,8.2a.454.454,0,0,1-.533.267l-3.07-.935,0,23.008h6.764a.779.779,0,0,0,.756-.756V12.877a.446.446,0,0,1,.445-.445.479.479,0,0,1,.445.445v2.091a.487.487,0,0,0,.712.445L37.678,13.9a.46.46,0,0,0,.267-.623Zm-7.432,1.513H27.532a.446.446,0,0,1-.445-.445.479.479,0,0,1,.445-.445h2.982a.445.445,0,1,1,0,.89Z" transform="translate(-11.301 -2.065)"/>
        <path id="Path_43" data-name="Path 43" class="cls-4" d="M11.644,8.178,9.73,4.04A7.124,7.124,0,0,0,4.212,8.4L2.254,13.25a.524.524,0,0,0,.267.668l3.6,1.558a.514.514,0,0,0,.712-.445V12.895a.445.445,0,0,1,.89,0V29.76a.779.779,0,0,0,.756.756h6.764V7.466l-3.07.935a.392.392,0,0,1-.533-.223Z" transform="translate(-2.22 -2.037)"/>
      </g>
    </g>
  </g>
</svg>
