<svg xmlns="http://www.w3.org/2000/svg" xmlns:xlink="http://www.w3.org/1999/xlink" width="40.667" height="40.667" viewBox="0 0 40.667 40.667">
  <defs>
    <style>
      .cls-1, .cls-4 {
        fill: #fff;
      }

      .cls-1 {
        stroke: #707070;
      }

      .cls-2 {
        fill: #31a8e2;
      }

      .cls-3 {
        clip-path: url(#clip-path);
      }

      .cls-4 {
        stroke: #fff;
        stroke-miterlimit: 10;
        stroke-width: 0.006px;
      }
    </style>
    <clipPath id="clip-path">
      <rect id="Rectangle_1609" data-name="Rectangle 1609" class="cls-1" width="31.333" height="31.333"/>
    </clipPath>
  </defs>
  <g id="Group_844" data-name="Group 844" transform="translate(0 -554.949)">
    <rect id="Rectangle_1608" data-name="Rectangle 1608" class="cls-2" width="40.667" height="40.667" rx="6" transform="translate(0 554.949)"/>
    <g id="Mask_Group_21" data-name="Mask Group 21" class="cls-3" transform="translate(4.666 559.092)">
      <path id="np_receipt_709417_FFFFFF" class="cls-4" d="M22.208,19.309V21.9a2.5,2.5,0,0,1-1.167-.6.969.969,0,0,1-.064-1.3,2.064,2.064,0,0,1,1.231-.7Zm1.454,4.406v2.633a2.01,2.01,0,0,0,1.267-.821.953.953,0,0,0-.152-1.246,2.583,2.583,0,0,0-1.115-.566Zm1.66,10.377a7.225,7.225,0,0,0,.189,1.66l-1.034-1.017-2.032,2.037-1.89-1.882-1.65,1.652-1.821-1.821-2.006,2L13.133,34.78V11.154l2.054-2.067,2.071,2.067,2.118-2.128,2.006,2.006L23.4,9l1.89,1.882,1.652-1.652,1.821,1.821,2.027-2L32.737,11V26.7a7.419,7.419,0,0,0-7.415,7.428Zm.515-7.425h0a2.38,2.38,0,0,0-.35-3.679,4.15,4.15,0,0,0-.787-.432c-.338-.142-.7-.247-1.02-.363V19.289a.248.248,0,0,0,.1.029l.164.052h0a1.638,1.638,0,0,1,1.179,1.3.7.7,0,0,0,.826.562.761.761,0,0,0,.584-.865,2.818,2.818,0,0,0-1.729-2.2,9.635,9.635,0,0,0-1.155-.4v-.7a.719.719,0,0,0-.189-.547.722.722,0,0,0-1.25.547v.721a1.1,1.1,0,0,1-.177.061,8.214,8.214,0,0,0-1.341.554,2.5,2.5,0,0,0-1.353,2.054,2.3,2.3,0,0,0,1.388,2.373c.466.25.973.4,1.483.615v2.871a1.64,1.64,0,0,1-1.453-1.3.722.722,0,1,0-1.419.267,2.594,2.594,0,0,0,1.419,2.02,13.292,13.292,0,0,0,1.453.6v.714a.726.726,0,0,0,.731.708.712.712,0,0,0,.7-.721,3.376,3.376,0,0,0,0-.584c0-.155.052-.2.211-.242a3.643,3.643,0,0,0,1.976-1.1Zm13.022,7.464a6.119,6.119,0,1,1-1.791-4.338,6.12,6.12,0,0,1,1.791,4.338Zm-2.827-2.452a.646.646,0,0,0-.917,0l-2.378,2.378L31.573,35.2l-1.211-1.211,0,0a.649.649,0,1,0-.909.92l1.5,1.5.169.169v0a.644.644,0,0,0,.459.191.662.662,0,0,0,.466-.191l4-4a.651.651,0,0,0-.017-.915Z" transform="translate(-10.33 -8.997)"/>
    </g>
  </g>
</svg>
