<?xml version="1.0" encoding="utf-8"?>
<!-- Generator: Adobe Illustrator 26.0.2, SVG Export Plug-In . SVG Version: 6.00 Build 0)  -->
<svg version="1.1" id="Layer_1" xmlns="http://www.w3.org/2000/svg" xmlns:xlink="http://www.w3.org/1999/xlink" x="0px" y="0px"
	 viewBox="0 0 1200 1200" style="enable-background:new 0 0 1200 1200;" xml:space="preserve">
<style type="text/css">
	.st0{fill:#FF7651;}
	.st1{fill:#FFFFFF;}
</style>
<path class="st0" d="M972.8,1200H227.2C101.7,1200,0,1098.3,0,972.8V227.2C0,101.7,101.7,0,227.2,0h745.5
	C1098.3,0,1200,101.7,1200,227.2v745.5C1200,1098.3,1098.3,1200,972.8,1200z"/>
<path class="st1" d="M1047.8,617.1c-5-27.4-12.6-54.1-22.7-79.8c-19.8-50.9-48.1-97.4-84.3-138.3c-35.2-39.8-78.5-74.2-125.5-99.4
	c-49-26.2-101.7-43.1-157.1-50.3c-55.4-7.2-113.7-3.9-168.5,9.7c-52.5,13.1-103.7,36.2-147.8,66.8c-44.7,30.9-83.3,69.1-114.5,113.2
	C196,483.6,173,533,159.1,586c-15.6,59.3-18.8,120.9-9.7,182.9c4.9,34.2,14,68,26.9,100.3c6.4,16.1,13.7,31.9,21.6,46.9
	c4.5,8.5,8.5,15.5,12.5,22c0.4,0.6,0.6,1.1,1.1,1.7c3.2,5.4,8.4,14.4,20.5,15.1c3.2,0.2,6.2,0.2,9.4,0.2c3.1,0,6.1-0.1,9-0.1
	c2.9-0.1,5.7-0.1,8.5-0.1H932c3.7,0,7.5,0,11.2,0.1c7.5,0.1,15.3,0.1,23.1-0.1c2.9-0.1,9.9-0.3,15.6-6.1c3.2-3.2,5.3-7.1,7.1-10.1
	c0.4-0.7,0.7-1.5,1.2-2.2c2.3-3.9,4.5-7.9,6.8-11.8c4.5-8.1,8.3-15.4,11.8-22.5c15.5-31.9,27.2-64.7,34.9-97.8
	c7.6-33.1,11.6-67,11.7-101.2c0.1-0.6,0.1-1.5,0.1-2.2C1055.4,672.5,1052.8,644.4,1047.8,617.1L1047.8,617.1z M853.4,682.8
	c7.9-21.4,27.8-35.3,50.7-35.6l0.6,0.1h0.9c25,1.1,46.5,19.2,51,43c0.6,3.4,1,7,1,10.4c0,18.9-9.7,36.9-26,46.6
	c-19.3,11.7-44.3,9.5-62.3-5.2C852.5,728.1,845.9,703.3,853.4,682.8L853.4,682.8z M867.1,499.3c-5.3,21.6-24.5,37.8-47.5,40.3
	c-21.9,2.3-44.3-10.6-53.3-30.7c-9.4-20.7-5.2-44.7,10.7-61l0.6-0.4l0.6-0.6c18.6-16.9,46.6-19.2,66.5-5.5
	C863.6,454.3,872.6,477.5,867.1,499.3L867.1,499.3z M651,666.4c-5,19.9-10.1,40.1-15.1,59.7l-1.7,7l5.5,4.5
	c12.5,10.5,20.5,24.7,22.7,40.2c4.1,29.7-13.7,58.6-42.2,68.5c-27.2,9.5-58.4-1.8-74.2-27.1l-0.2-0.4c-0.1-0.1-0.1-0.2-0.2-0.3
	l-0.1-0.2c-10.1-17.7-11.2-39.3-2.8-58c8.1-18.3,24.6-31.4,45.5-35.7l7.1-1.5l1.6-7.1c1.1-4.8,2.4-9.7,3.7-14.4
	c0.9-2.9,1.6-6.1,2.4-9.2c2.3-9.1,4.5-18.2,6.8-27.2c1.8-7.3,3.7-14.5,5.5-21.9c3.3-13.4,6.7-26.7,10.1-40.2
	c3.4-13.5,6.8-27.1,10.3-40.7c1.1-4.6,2.8-8.2,5.4-10.9c6.7-7.4,18.9-8.3,27-2.1c6.2,4.9,9,13.1,7.1,21.4c-0.3,1.1-0.6,2.2-0.9,3.2
	c-0.3,1.2-0.6,2.4-1,3.7c-4.2,16.5-8.3,33-12.5,49.5C657.6,640.3,654.4,653.3,651,666.4L651,666.4z M653.6,397.7v0.9
	c-1.1,25-19.2,46.5-43,51c-22.5,4.3-45.3-5.8-57-25c-11.7-19.3-9.6-44.3,5.2-62.3c13.9-16.8,38.8-23.4,59.3-15.9
	c21.4,7.9,35.3,27.8,35.6,50.7L653.6,397.7z M362,437.4c7.3-3.3,15.1-4.9,22.8-4.9c13.9,0,27.6,5.4,38.2,15.6l0.4,0.6l0.6,0.6
	c16.9,18.6,19.2,46.5,5.5,66.5c-12.9,18.7-36.2,27.6-58,22.2c-21.6-5.3-37.8-24.5-40.3-47.5C329.2,468.9,342.1,446.5,362,437.4
	L362,437.4z M323.3,747.2c-19.3,11.7-44.3,9.5-62.3-5.2c-16.8-13.9-23.4-38.8-15.9-59.3c7.9-21.4,27.8-35.3,50.7-35.6l0.6,0.1h0.9
	c25,1.1,46.5,19.2,51,43C352.7,712.7,342.6,735.6,323.3,747.2L323.3,747.2z"/>
</svg>
