<?xml version="1.0" encoding="UTF-8"?>
<svg width="1200pt" height="1200pt" version="1.1" viewBox="0 0 1200 1200" xmlns="http://www.w3.org/2000/svg">
 <path d="m600 1150c145.87 0 285.77-57.945 388.91-161.09 103.14-103.14 161.09-243.04 161.09-388.91s-57.945-285.77-161.09-388.91c-103.14-103.14-243.04-161.09-388.91-161.09s-285.77 57.945-388.91 161.09c-103.14 103.14-161.09 243.04-161.09 388.91s57.945 285.77 161.09 388.91c103.14 103.14 243.04 161.09 388.91 161.09zm-285.5-535.5c9.3672-9.3125 22.039-14.539 35.25-14.539s25.883 5.2266 35.25 14.539l115 115 289.5-289.5c12.871-11.023 30.453-14.777 46.703-9.9688 16.25 4.8047 28.961 17.516 33.766 33.766 4.8086 16.25 1.0547 33.832-9.9688 46.703l-325 325c-9.3672 9.3125-22.039 14.539-35.25 14.539s-25.883-5.2266-35.25-14.539l-150-150c-9.4648-9.3867-14.789-22.168-14.789-35.5s5.3242-26.113 14.789-35.5z" fill="#fff"/>
</svg>
