<?xml version="1.0" encoding="UTF-8"?>
<svg width="1200pt" height="1200pt" version="1.1" viewBox="0 0 1200 1200" xmlns="http://www.w3.org/2000/svg">
 <g fill="#fff">
  <path d="m792 504c0 26.508-21.492 48-48 48s-48-21.492-48-48 21.492-48 48-48 48 21.492 48 48"/>
  <path d="m972 420c0-38.191-15.172-74.816-42.176-101.82-27.008-27.004-63.633-42.176-101.82-42.176h-456c-38.191 0-74.816 15.172-101.82 42.176-27.004 27.008-42.176 63.633-42.176 101.82v360c0 38.191 15.172 74.816 42.176 101.82 27.008 27.004 63.633 42.176 101.82 42.176h456c38.191 0 74.816-15.172 101.82-42.176 27.004-27.008 42.176-63.633 42.176-101.82zm-96 360c0 12.73-5.0586 24.938-14.059 33.941-9.0039 9-21.211 14.059-33.941 14.059h-456c-12.73 0-24.938-5.0586-33.941-14.059-9-9.0039-14.059-21.211-14.059-33.941v-360c0-12.73 5.0586-24.938 14.059-33.941 9.0039-9 21.211-14.059 33.941-14.059h456c12.73 0 24.938 5.0586 33.941 14.059 9 9.0039 14.059 21.211 14.059 33.941z"/>
  <path d="m744 648h-288c-17.148 0-32.996 9.1484-41.57 24-8.5742 14.852-8.5742 33.148 0 48 8.5742 14.852 24.422 24 41.57 24h288c17.148 0 32.996-9.1484 41.57-24 8.5742-14.852 8.5742-33.148 0-48-8.5742-14.852-24.422-24-41.57-24z"/>
  <path d="m456 552h108c17.148 0 32.996-9.1484 41.57-24 8.5742-14.852 8.5742-33.148 0-48-8.5742-14.852-24.422-24-41.57-24h-108c-17.148 0-32.996 9.1484-41.57 24-8.5742 14.852-8.5742 33.148 0 48 8.5742 14.852 24.422 24 41.57 24z"/>
 </g>
</svg>
