<?xml version="1.0" encoding="UTF-8"?>
<svg width="1200pt" height="1200pt" version="1.1" viewBox="0 0 1200 1200" xmlns="http://www.w3.org/2000/svg">
 <g fill="#fff" fill-rule="evenodd">
  <path d="m168.75 470c0-167.51 127.88-307.5 290.62-307.5 96.664 0 181.45 49.785 233.97 125.04 15.285-3.3047 31.102-5.043 47.281-5.043 113.45 0 205.53 84.156 228.71 193.25 69.215 27.57 118.16 95.156 118.16 174.25 0 47.02-17.359 90.086-45.965 122.98-34.32 39.473-85.023 64.52-141.54 64.52-20.711 0-37.5-16.789-37.5-37.5s16.789-37.5 37.5-37.5c33.895 0 64.254-14.945 84.941-38.73 17.188-19.77 27.559-45.516 27.559-73.77 0-52.762-36.355-97.125-85.434-109.23-15.223-3.7539-26.5-16.586-28.277-32.16-9.9375-87.098-78.734-151.11-158.16-151.11-17.914 0-35.078 3.1875-51.102 9.0586-17.27 6.3281-36.578-0.80078-45.594-16.836-38.285-68.102-107.19-112.22-184.55-112.22-116.84 0-215.62 101.78-215.62 232.5 0 17.488 1.7852 34.48 5.1562 50.789 2.9883 14.461-2.7852 29.324-14.746 37.977-28.344 20.5-46.66 53.723-46.66 91.234 0 28.254 10.367 54 27.562 73.77 12.664 14.566 28.973 25.809 47.434 32.34 11.684 4.125 24.289 6.3906 37.504 6.3906 20.711 0 37.5 16.789 37.5 37.5s-16.789 37.5-37.5 37.5c-21.848 0-42.898-3.75-62.496-10.68-30.906-10.922-58.035-29.68-79.039-53.84-28.605-32.895-45.965-75.961-45.965-122.98 0-53.906 22.773-102.49 59.117-136.65-1.8906-14.184-2.8672-28.656-2.8672-43.352z"/>
  <path d="m600 685.88c-89.746 0-162.5 72.754-162.5 162.5 0 89.75 72.754 162.5 162.5 162.5s162.5-72.75 162.5-162.5c0-89.746-72.754-162.5-162.5-162.5zm-237.5 162.5c0-131.16 106.33-237.5 237.5-237.5 131.17 0 237.5 106.34 237.5 237.5 0 131.17-106.33 237.5-237.5 237.5-131.17 0-237.5-106.33-237.5-237.5z"/>
  <path d="m600 735.88c20.711 0 37.5 16.789 37.5 37.5v59.469l10.984-10.984c14.645-14.645 38.387-14.645 53.031 0s14.645 38.391 0 53.035l-75 75c-14.645 14.645-38.387 14.645-53.031 0l-75-75c-14.645-14.645-14.645-38.391 0-53.035s38.387-14.645 53.031 0l10.984 10.984v-59.469c0-20.711 16.789-37.5 37.5-37.5z"/>
 </g>
</svg>
