<svg xmlns="http://www.w3.org/2000/svg" viewBox="0 0 24 24" fill="none" x="0px" y="0px"><path fill-rule="evenodd" clip-rule="evenodd" d="M3.375 9.4C3.375 6.04978 5.93248 3.25 9.1875 3.25C11.1208 3.25 12.8165 4.24571 13.8669 5.75087C14.1726 5.68473 14.4889 5.65 14.8125 5.65C17.0814 5.65 18.9231 7.3331 19.3868 9.515C20.7711 10.0664 21.75 11.4181 21.75 13C21.75 13.9404 21.4028 14.8017 20.8307 15.4596C20.1443 16.2491 19.1302 16.75 18 16.75C17.5858 16.75 17.25 16.4142 17.25 16C17.25 15.5858 17.5858 15.25 18 15.25C18.6779 15.25 19.2851 14.9511 19.6988 14.4754C20.0426 14.08 20.25 13.5651 20.25 13C20.25 11.9448 19.5229 11.0575 18.5413 10.8154C18.2369 10.7403 18.0113 10.4837 17.9758 10.1722C17.777 8.4302 16.4011 7.15 14.8125 7.15C14.4542 7.15 14.1109 7.21372 13.7905 7.33114C13.4451 7.45773 13.0589 7.31514 12.8786 6.99447C12.1129 5.63244 10.7348 4.75 9.1875 4.75C6.85063 4.75 4.875 6.78554 4.875 9.4C4.875 9.74973 4.91072 10.0896 4.97814 10.4158C5.03788 10.705 4.92244 11.0023 4.68321 11.1753C4.11636 11.5853 3.75 12.2498 3.75 13C3.75 13.5651 3.95738 14.08 4.30122 14.4754C4.5545 14.7667 4.88067 14.9916 5.24993 15.1222C5.48356 15.2047 5.73568 15.25 6 15.25C6.41421 15.25 6.75 15.5858 6.75 16C6.75 16.4142 6.41421 16.75 6 16.75C5.56305 16.75 5.142 16.675 4.75007 16.5364C4.13197 16.318 3.58939 15.9428 3.16928 15.4596C2.59715 14.8017 2.25 13.9404 2.25 13C2.25 11.9219 2.70547 10.9502 3.43237 10.267C3.39453 9.98339 3.375 9.69392 3.375 9.4Z" fill="black"></path><path fill-rule="evenodd" clip-rule="evenodd" d="M12 13.7175C10.2051 13.7175 8.75 15.1726 8.75 16.9675C8.75 18.7625 10.2051 20.2175 12 20.2175C13.7949 20.2175 15.25 18.7625 15.25 16.9675C15.25 15.1726 13.7949 13.7175 12 13.7175ZM7.25 16.9675C7.25 14.3442 9.37665 12.2175 12 12.2175C14.6234 12.2175 16.75 14.3442 16.75 16.9675C16.75 19.5909 14.6234 21.7175 12 21.7175C9.37665 21.7175 7.25 19.5909 7.25 16.9675Z" fill="black"></path><path fill-rule="evenodd" clip-rule="evenodd" d="M12 14.7175C12.4142 14.7175 12.75 15.0533 12.75 15.4675V16.6569L12.9697 16.4372C13.2626 16.1443 13.7374 16.1443 14.0303 16.4372C14.3232 16.7301 14.3232 17.205 14.0303 17.4979L12.5303 18.9979C12.2374 19.2908 11.7626 19.2908 11.4697 18.9979L9.96967 17.4979C9.67678 17.205 9.67678 16.7301 9.96967 16.4372C10.2626 16.1443 10.7374 16.1443 11.0303 16.4372L11.25 16.6569V15.4675C11.25 15.0533 11.5858 14.7175 12 14.7175Z" fill="black"></path></svg>