<svg xmlns="http://www.w3.org/2000/svg" data-name="Layer 1" viewBox="0 0 100 100" x="0px" y="0px"><title>Artboard 10</title><path d="M68.53,18a13,13,0,0,0-8.1,3.88L39.86,42.48A19.87,19.87,0,0,0,34,56.63V60a6,6,0,0,0,6,6h3.37a20,20,0,0,0,14.14-5.86L78.08,39.57A13,13,0,0,0,82,31.48,12.5,12.5,0,0,0,68.53,18ZM74,30.49a4.46,4.46,0,0,1-1.31,3.17L51.86,54.48A11.92,11.92,0,0,1,43.37,58H42V56.63a11.92,11.92,0,0,1,3.51-8.49L66.34,27.31A4.49,4.49,0,0,1,74,30.49Z"></path><path d="M30,82H66A12,12,0,0,0,78,70V58a4,4,0,0,0-8,0V70a4,4,0,0,1-4,4H30a4,4,0,0,1-4-4V34a4,4,0,0,1,4-4H42a4,4,0,0,0,0-8H30A12,12,0,0,0,18,34V70A12,12,0,0,0,30,82Z"></path></svg>