<?xml version="1.0" encoding="UTF-8"?>
<svg width="1200pt" height="1200pt" version="1.1" viewBox="0 0 1200 1200" xmlns="http://www.w3.org/2000/svg">
 <g fill="#fff" fill-rule="evenodd">
  <path d="m706.66 684c0.94141 0.67969 2.0234 1.0586 2.8633 1.8984l24.258 24.242c0.83984 0.85938 1.2227 1.9375 1.9023 2.8789l100.68-22.379-107.32-107.34z"/>
  <path d="m882.46 676.81 219.68-213.9-140.66-140.66-218.04 214.78 137.5 137.5c0.67969 0.66016 0.96094 1.5391 1.5195 2.2812"/>
  <path d="m1058.8 226.41-66.723 65.719 140.84 140.84 67.102-65.34z"/>
  <path d="m481.7 538.7c-31.48 0-57.859-21.043-66.598-49.703 13.699-0.91797 27.699-1.0586 42.34 0.84375 2.3984 0.31641 4.7188 0.019531 6.957-0.48047 4.7031 3.9375 10.68 6.418 17.301 6.418 14.902 0 27.02-12.121 27.02-27.02 0-14.918-12.117-27.039-27.02-27.039-7.6797 0-14.578 3.2578-19.52 8.418-16.52-2.0977-32.141-2.0195-47.238-1.1406 8.5977-28.918 35.098-50.199 66.758-50.199 38.562 0 69.941 31.383 69.941 69.961 0 38.559-31.379 69.941-69.941 69.941zm421.58 177.74c-0.40234 0.40234-0.94141 0.53906-1.3594 0.87891-1.0625 0.90234-2.2227 1.582-3.4609 2.2617-1.3203 0.71875-2.6016 1.3594-4.0195 1.7812-0.51953 0.16016-0.94141 0.53906-1.4805 0.66016l-218.18 48.477c-1.543 0.34375-3.0625 0.5-4.5625 0.5-0.039062 0-0.058594 0.023437-0.078125 0.023437h-0.039063c-0.023437 0-0.0625-0.023437-0.082031-0.023437-1.5 0-3.0391-0.15625-4.5586-0.5-0.38281-0.078125-0.66016-0.33984-1.0195-0.45703-1.8203-0.5-3.4609-1.3008-5.0625-2.2422-0.69922-0.39844-1.4375-0.66016-2.0586-1.1406-2.0586-1.5391-3.8789-3.3594-5.3008-5.5586v-0.019531c-1.3008-2.0586-2.2812-4.3594-2.8398-6.8594-0.039063-0.14062 0.019531-0.26172-0.019532-0.37891-0.28125-1.3828-0.082031-2.8438-0.082031-4.2812 0-1.4414-0.19922-2.8789 0.082031-4.2812 0.039063-0.12109-0.019531-0.23828 0.019532-0.37891l45.281-203.72c-0.33984-4.1211 0.57812-8.1406 2.6172-11.863l0.58203-2.5977c0.14062-0.60156 0.55859-1.0625 0.73828-1.6406 0.42187-1.3789 1.0234-2.6406 1.7227-3.9219 0.71875-1.2969 1.4805-2.5 2.4375-3.5977 0.40234-0.46094 0.5625-1.0391 1-1.4609l87.961-86.66c-1.8594-0.98047-3.7188-1.9609-5.2812-3.5195l-86.238-75.922h-320v102.52c-9.6797 1.4375-19.078 3.0391-28.078 4.6367-44.844 8-71.242 11.621-92.281-6.6992-16.922-14.738-21.602-32.5-29.359-61.961-4.4023-16.68-9.3828-35.578-17.762-58.039-23-61.461-108.58-164.68-178.36-234.58-7.8008-7.8203-20.461-7.8398-28.301-0.019531-7.8008 7.7969-7.8203 20.438 0 28.277 80.402 80.543 151.56 173.22 169.18 220.34 7.6992 20.582 12.422 38.441 16.562 54.223 8.3594 31.719 15.578 59.098 41.758 81.918 20.262 17.621 42.562 23.102 66.242 23.102 19.02 0 38.918-3.5391 59.32-7.1797 6.957-1.2422 14-2.4609 21.078-3.6016v217.06l379.32 400 354.62-334.92-133.64-133.64z"/>
 </g>
</svg>
