<?xml version="1.0" encoding="UTF-8"?>
<svg width="1200pt" height="1200pt" version="1.1" viewBox="0 0 1200 1200" xmlns="http://www.w3.org/2000/svg">
 <g fill="#d2d2d2">
  <path d="m851.95 724.45v69.375 106.99c0 10.43 0.46875 21.094-0.70312 31.406 0.82031-6.2109 1.6406-12.422 2.4609-18.75-1.0547 7.8516-3.1641 15.352-6.0938 22.734 2.3438-5.625 4.6875-11.25 7.0312-16.758-3.0469 7.1484-6.9141 13.711-11.602 19.922 3.6328-4.6875 7.3828-9.4922 11.016-14.18-4.8047 6.0938-10.195 11.484-16.172 16.172 4.6875-3.6328 9.4922-7.3828 14.18-11.016-6.2109 4.6875-12.773 8.5547-19.922 11.602 5.625-2.3438 11.25-4.6875 16.758-7.0312-7.3828 3.0469-14.883 5.0391-22.734 6.0938 6.2109-0.82031 12.422-1.6406 18.75-2.4609-8.6719 1.0547-17.578 0.70312-26.367 0.70312h-45.938-154.57-188.91-161.72c-25.078 0-50.156 0.11719-75.234 0-3.9844 0-7.8516-0.23437-11.836-0.70312 6.2109 0.82031 12.422 1.6406 18.75 2.4609-7.8516-1.0547-15.352-3.1641-22.734-6.0938 5.625 2.3438 11.25 4.6875 16.758 7.0312-7.1484-3.0469-13.711-6.9141-19.922-11.602 4.6875 3.6328 9.4922 7.3828 14.18 11.016-6.0938-4.8047-11.484-10.195-16.172-16.172 3.6328 4.6875 7.3828 9.4922 11.016 14.18-4.6875-6.2109-8.5547-12.773-11.602-19.922 2.3438 5.625 4.6875 11.25 7.0312 16.758-3.0469-7.3828-5.0391-14.883-6.0938-22.734 0.82031 6.2109 1.6406 12.422 2.4609 18.75-1.0547-8.6719-0.70313-17.578-0.70313-26.367v-45.938-154.57-188.91-161.72c0-25.078-0.11719-50.156 0-75.234 0-3.9844 0.23438-7.8516 0.70313-11.836-0.82031 6.2109-1.6406 12.422-2.4609 18.75 1.0547-7.8516 3.1641-15.352 6.0938-22.734-2.3438 5.625-4.6875 11.25-7.0312 16.758 3.0469-7.1484 6.9141-13.711 11.602-19.922-3.6328 4.6875-7.3828 9.4922-11.016 14.18 4.8047-6.0938 10.195-11.484 16.172-16.172-4.6875 3.6328-9.4922 7.3828-14.18 11.016 6.2109-4.6875 12.773-8.5547 19.922-11.602-5.625 2.3438-11.25 4.6875-16.758 7.0312 7.3828-3.0469 14.883-5.0391 22.734-6.0938-6.2109 0.82031-12.422 1.6406-18.75 2.4609 15.586-1.875 31.875-0.70312 47.578-0.70312h96.797 118.83 104.06c16.875 0 33.75 0.23438 50.625 0h0.70312c18.047 0 36.914-7.8516 49.688-20.625 12.188-12.188 21.328-32.227 20.625-49.688-0.82031-18.164-6.7969-37.031-20.625-49.688-13.711-12.656-30.703-20.625-49.688-20.625h-65.039-142.27-140.39-44.883c-8.2031 0-16.523-0.35156-24.609 0.58594-28.359 2.9297-56.484 10.078-79.688 27.539-7.6172 5.7422-15.469 11.367-22.266 18.047-5.0391 5.0391-9.2578 10.664-13.594 16.289-4.2188 5.3906-8.4375 10.781-11.953 16.641-4.9219 8.5547-8.6719 18.164-12.305 27.188-7.2656 18.164-9.375 38.32-9.375 57.773v69.844 126.8 151.99 145.2 106.29c0 24.961-0.82031 49.102 4.4531 73.828 5.8594 27.305 21.211 52.852 40.078 73.008 9.375 10.078 20.859 18.75 32.578 26.016 3.5156 2.2266 7.1484 4.1016 10.898 5.7422 9.0234 4.1016 18.281 8.3203 27.773 11.016 16.172 4.6875 33.164 5.9766 49.922 5.9766h73.359 128.79 152.34 144.02 103.48c26.602 0 54.375 1.5234 79.922-7.1484 26.25-8.9062 51.797-23.32 70.078-44.531 9.0234-10.547 18.281-22.031 24.258-34.805 5.7422-12.539 11.719-25.547 13.945-39.141 3.2812-20.039 3.75-37.969 3.75-58.008v-140.16-31.641c0-18.047-7.8516-36.914-20.625-49.688-12.188-12.188-32.227-21.328-49.688-20.625-18.164 0.82031-37.031 6.7969-49.688 20.625-12.305 13.828-20.273 30.703-20.273 49.805z"/>
  <path d="m1167.1 434.41v-82.266-131.25-30.352c0-37.969-32.227-70.312-70.312-70.312h-82.266-131.25-30.352c-18.047 0-36.914 7.8516-49.688 20.625-12.188 12.188-21.328 32.227-20.625 49.688 0.82031 18.164 6.7969 37.031 20.625 49.688 13.711 12.656 30.703 20.625 49.688 20.625h82.266 131.25 30.352l-70.312-70.312v82.266 131.25 30.352c0 18.047 7.8516 36.914 20.625 49.688 12.188 12.188 32.227 21.328 49.688 20.625 18.164-0.82031 37.031-6.7969 49.688-20.625 12.656-13.711 20.625-30.586 20.625-49.688z"/>
  <path d="m592.38 794.3c18.398-18.398 36.797-36.797 55.195-55.195 44.18-44.18 88.359-88.359 132.54-132.54l298.12-298.12c22.5-22.5 45.117-44.648 67.383-67.383 0.35156-0.35156 0.58594-0.58594 0.9375-0.9375 12.773-12.773 20.625-31.641 20.625-49.688 0-17.227-7.6172-37.852-20.625-49.688-13.359-12.305-30.938-21.445-49.688-20.625-18.633 0.82031-36.211 7.1484-49.688 20.625-18.398 18.398-36.797 36.797-55.195 55.195-44.18 44.18-88.359 88.359-132.54 132.54l-298.12 298.12c-22.5 22.5-45.117 44.648-67.383 67.383-0.35156 0.35156-0.58594 0.58594-0.9375 0.9375-12.773 12.773-20.625 31.641-20.625 49.688 0 17.227 7.6172 37.852 20.625 49.688 13.359 12.305 30.938 21.445 49.688 20.625 18.633-0.82031 36.211-7.1484 49.688-20.625z"/>
 </g>
</svg>
