<?xml version="1.0" encoding="UTF-8"?>
<svg width="1200pt" height="1200pt" version="1.1" viewBox="0 0 1200 1200" xmlns="http://www.w3.org/2000/svg">
 <path d="m1002.8 556.12-375-375c-7.0117-6.8711-16.434-10.719-26.25-10.719s-19.238 3.8477-26.25 10.719l-375 375c-6.4766 6.9375-10.086 16.07-10.094 25.562s3.5859 18.633 10.051 25.578c6.4648 6.9492 15.324 11.188 24.793 11.859h45.75v375c0 9.9453 3.9492 19.484 10.984 26.516 7.0312 7.0352 16.57 10.984 26.516 10.984h210v-251.62c0-9.9453 3.9492-19.484 10.984-26.516 7.0312-7.0352 16.57-10.984 26.516-10.984h90.75c9.9453 0 19.484 3.9492 26.516 10.984 7.0352 7.0312 10.984 16.57 10.984 26.516v251.25h210c9.9453 0 19.484-3.9492 26.516-10.984 7.0352-7.0312 10.984-16.57 10.984-26.516v-375h47.625c9.2422-0.99609 17.781-5.3867 23.969-12.324s9.5781-15.922 9.5117-25.215c-0.0625-9.2969-3.5742-18.234-9.8555-25.086z" fill="#d2d2d2"/>
</svg>
