<?xml version="1.0" encoding="UTF-8"?>
<svg width="1200pt" height="1200pt" version="1.1" viewBox="0 0 1200 1200" xmlns="http://www.w3.org/2000/svg">
 <path d="m277.5 641.25c-45 0-86.25 7.5-127.5 18.75v206.25c0 52.5 41.25 93.75 93.75 93.75h450c-48.75-183.75-217.5-318.75-416.25-318.75zm701.25-37.5c-123.75 0-240 45-333.75 123.75 60 63.75 105 146.25 123.75 236.25h187.5c52.5 0 93.75-41.25 93.75-93.75v-258.75c-22.5-7.5-45-7.5-71.25-7.5zm-18.75-363.75h-720c-52.5 0-93.75 41.25-93.75 93.75v251.25c41.25-11.25 86.25-15 127.5-15 120 0 228.75 41.25 315 108.75 105-97.5 243.75-150 390-150 26.25 0 48.75 0 75 3.75v-198.75c0-52.5-41.25-93.75-93.75-93.75zm-292.5 318.75c-67.5 0-123.75-56.25-123.75-123.75s56.25-123.75 123.75-123.75 123.75 56.25 123.75 123.75-56.25 123.75-123.75 123.75z" fill="#fff"/>
</svg>
