<?xml version="1.0" encoding="UTF-8"?>
<svg width="1200pt" height="1200pt" version="1.1" viewBox="0 0 1200 1200" xmlns="http://www.w3.org/2000/svg">
 <path d="m600 100c-277 0-500 223-500 500s223 500 500 500 500-223 500-500-223-500-500-500zm0 252c35 0 62 27 62 62s-27 62-62 62-62-27-62-62 27-62 62-62zm104 438c0 10-8 19-21 19h-166c-10 0-21-6-21-19v-42c0-10 8-23 21-23 10 0 21-6 21-19v-83c0-10-8-23-21-23-10 0-21-6-21-19v-41c0-10 8-23 21-23h125c10 0 21 10 21 23v167c0 10 8 19 21 19 10 0 21 10 21 23v41z" fill="#fff"/>
</svg>
