<?xml version="1.0" encoding="utf-8"?>
<!-- Generator: Adobe Illustrator 15.1.0, SVG Export Plug-In . SVG Version: 6.00 Build 0)  -->
<!DOCTYPE svg PUBLIC "-//W3C//DTD SVG 1.1//EN" "http://www.w3.org/Graphics/SVG/1.1/DTD/svg11.dtd">
<svg version="1.1" id="Ebene_1" xmlns="http://www.w3.org/2000/svg" xmlns:xlink="http://www.w3.org/1999/xlink" x="0px" y="0px"
	 width="147.961px" height="147.876px" viewBox="0 0 147.961 147.876" enable-background="new 0 0 147.961 147.876"
	 xml:space="preserve">
<path fill="#FFED00" stroke="#FFFFFF" stroke-width="1.5" stroke-miterlimit="10" stroke-opacity="0" d="M60.169,19.178l0.988-1.682
	c0.629-1.071,0.127-1.947-1.114-1.947h-1.856c-1.242,0-1.857,0.934-1.368,2.075l0.611,1.425c0.489,1.141-0.126,2.075-1.369,2.075
	h-8.687v7.237c0,1.242,0.921,1.828,2.046,1.303l2.545-1.188c1.125-0.525,1.947,0.056,1.826,1.292l-0.357,3.647
	c-0.121,1.236-1.083,1.711-2.138,1.056l-2.005-1.246c-1.055-0.655-1.918-0.175-1.918,1.066v7.957h8.333
	c1.242,0,1.686,0.84,0.986,1.866l-1.438,2.109c-0.699,1.026-0.27,2.034,0.955,2.241l3.423,0.576
	c1.225,0.207,1.833-0.562,1.353-1.706l-1.261-3.005c-0.48-1.145,0.142-2.082,1.384-2.082H70.5V21.125h-9.216
	C60.042,21.125,59.541,20.249,60.169,19.178z"/>
<path fill="#BE1622" stroke="#FFFFFF" stroke-width="1.5" stroke-miterlimit="10" stroke-opacity="0" d="M59.723,44.332l1.261,3.005
	c0.481,1.145-0.128,1.913-1.353,1.706l-3.423-0.576c-1.224-0.207-1.654-1.215-0.955-2.241l1.438-2.109
	c0.7-1.026,0.256-1.866-0.986-1.866h-8.333v7.971c0,1.241-0.864,1.723-1.919,1.069l-1.736-1.075
	c-1.056-0.653-1.992-0.175-2.081,1.063l-0.209,2.93c-0.088,1.239,0.766,1.836,1.898,1.327l1.987-0.894
	c1.133-0.509,2.06,0.091,2.06,1.333v7.401h8.067c1.242,0,1.893,0.948,1.447,2.107l-1.034,2.688c-0.446,1.159,0.182,1.89,1.395,1.623
	l2.846-0.625c1.213-0.266,1.716-1.374,1.117-2.462l-0.744-1.354c-0.598-1.088-0.072-1.978,1.17-1.978H70.5V42.25h-9.394
	C59.865,42.25,59.243,43.188,59.723,44.332z"/>
<path fill="#312783" stroke="#FFFFFF" stroke-width="1.5" stroke-miterlimit="10" stroke-opacity="0" d="M47.374,8.529
	c0,0.931,0.913,1.247,2.029,0.702L50.92,8.49c1.116-0.545,2.068,0.025,2.117,1.266l0.09,2.324c0.048,1.241-0.833,1.827-1.959,1.303
	l-1.748-0.814c-1.125-0.525-2.046,0.063-2.046,1.304v7.252h8.687c1.242,0,1.858-0.934,1.369-2.075l-0.611-1.425
	c-0.489-1.141,0.126-2.075,1.368-2.075h1.856c1.242,0,1.743,0.876,1.114,1.947l-0.988,1.682c-0.628,1.071-0.127,1.947,1.115,1.947
	H70.5V0H47.374v4.579C47.374,5.82,47.374,7.598,47.374,8.529z"/>
<path fill="#009640" stroke="#FFFFFF" stroke-width="1.5" stroke-miterlimit="10" stroke-opacity="0" d="M35.587,22.96l-1.175,1.64
	c-0.723,1.009-0.299,1.835,0.942,1.835h2.83c1.242,0,1.803-0.909,1.248-2.02l-0.636-1.271c-0.555-1.111,0.006-2.02,1.248-2.02h7.329
	v-7.252c0-1.242,0.921-1.829,2.046-1.304l1.748,0.814c1.125,0.524,2.007-0.062,1.959-1.303l-0.09-2.324
	c-0.048-1.241-1.001-1.811-2.117-1.266l-1.518,0.741c-1.116,0.544-2.029,0.229-2.029-0.702c0-0.931,0-2.708,0-3.95V0H24.248v21.125
	h10.397C35.887,21.125,36.311,21.951,35.587,22.96z"/>
<path fill="#009640" stroke="#FFFFFF" stroke-width="1.5" stroke-miterlimit="10" stroke-opacity="0" d="M60.468,65.354l0.744,1.354
	c0.599,1.088,0.096,2.196-1.117,2.462l-2.846,0.625c-1.212,0.267-1.84-0.464-1.395-1.623l1.034-2.688
	c0.446-1.159-0.205-2.107-1.447-2.107h-8.067v10.163c0,1.241,0.765,1.589,1.699,0.771l1.912-1.673
	c0.935-0.818,1.626-0.474,1.537,0.765l-0.206,2.863c-0.089,1.238-1.091,1.84-2.226,1.335l-0.652-0.29
	c-1.135-0.504-2.063,0.1-2.063,1.342v5.849h8.51c1.242,0,1.696,0.847,1.009,1.881l-0.933,1.405
	c-0.687,1.035-0.242,2.022,0.988,2.194l2.63,0.369c1.23,0.172,1.795-0.603,1.257-1.722l-1.007-2.094
	c-0.539-1.119,0.037-2.034,1.279-2.034H70.5V63.376h-8.862C60.396,63.376,59.87,64.266,60.468,65.354z"/>
<path fill="#BE1622" stroke="#FFFFFF" stroke-width="1.5" stroke-miterlimit="10" stroke-opacity="0" d="M68.731,114.881l-0.9-0.713
	c-0.973-0.771-1.998-0.412-2.277,0.798l-0.378,1.64c-0.279,1.21,0.478,1.953,1.683,1.651l1.452-0.363
	c1.205-0.302,2.19,0.468,2.19,1.71v7.147h9.189c1.241,0,1.752,0.881,1.134,1.958l-0.43,0.749c-0.618,1.077-0.108,1.909,1.132,1.849
	l2.326-0.113c1.24-0.06,1.603-0.888,0.805-1.84l-0.729-0.871c-0.798-0.952-0.434-1.731,0.808-1.731h8.892l0.036-8.675
	c0.005-1.241-0.812-1.659-1.815-0.927l-1.176,0.857c-1.002,0.731-1.823,0.313-1.823-0.928v-1.923c0-1.242,0.923-1.835,2.052-1.317
	l0.674,0.31c1.129,0.517,2.053-0.076,2.053-1.317v-7.205H70.5v8.4C70.5,115.268,69.704,115.652,68.731,114.881z"/>
<path fill="#36A9E1" stroke="#FFFFFF" stroke-width="1.5" stroke-miterlimit="10" stroke-opacity="0" d="M34.44,40.413l-1.447-2.027
	c-0.722-1.01-0.297-1.788,0.943-1.729l4.22,0.202c1.24,0.059,1.646,0.921,0.903,1.915l-1.248,1.668
	c-0.744,0.994-0.336,1.808,0.906,1.808h8.656v-7.957c0-1.241,0.863-1.721,1.918-1.066l2.005,1.246
	c1.055,0.655,2.017,0.181,2.138-1.056l0.357-3.647c0.121-1.236-0.701-1.818-1.826-1.292l-2.545,1.188
	c-1.125,0.525-2.046-0.061-2.046-1.303v-7.237h-7.329c-1.242,0-1.803,0.909-1.248,2.02l0.636,1.271
	c0.555,1.111-0.006,2.02-1.248,2.02h-2.83c-1.242,0-1.666-0.826-0.942-1.835l1.175-1.64c0.723-1.01,0.299-1.835-0.942-1.835H24.248
	V42.25h9.247C34.736,42.25,35.162,41.424,34.44,40.413z"/>
<path fill="#312783" stroke="#FFFFFF" stroke-width="1.5" stroke-miterlimit="10" stroke-opacity="0" d="M91.574,114.148
	l-0.674-0.31c-1.129-0.518-2.052,0.075-2.052,1.317v1.923c0,1.241,0.821,1.659,1.823,0.928l1.176-0.857
	c1.004-0.732,1.82-0.314,1.815,0.927l-0.036,8.675l8.607-0.143c1.24-0.021,1.92-0.996,1.508-2.167l-0.626-1.78
	c-0.412-1.172,0.259-1.996,1.489-1.831l2.493,0.332c1.23,0.164,1.575,1.068,0.765,2.009l-1.611,1.87
	c-0.811,0.94-0.457,1.71,0.784,1.71h9.718v-7.413c0-1.242,0.725-1.546,1.611-0.677l1.174,1.151c0.887,0.87,1.713,0.57,1.836-0.665
	l0.215-2.144c0.123-1.236-0.772-2.051-1.99-1.812l-0.631,0.124c-1.218,0.24-2.215-0.58-2.215-1.821v-7.869H93.627v7.205
	C93.627,114.072,92.703,114.665,91.574,114.148z"/>
<path fill="#FFED00" stroke="#FFFFFF" stroke-width="1.5" stroke-miterlimit="10" stroke-opacity="0" d="M61.191,103.901l0.45-0.532
	c0.801-0.949,0.466-1.95-0.745-2.226l-1.438-0.327c-1.211-0.275-2.067,0.507-1.903,1.738l0.111,0.833
	c0.164,1.231-0.718,2.238-1.959,2.238h-8.333v7.404c0,1.241,0.806,1.639,1.791,0.883l1.433-1.101
	c0.985-0.756,1.852-0.36,1.926,0.879l0.128,2.13c0.074,1.24-0.826,1.924-2,1.521l-1.143-0.393c-1.174-0.403-2.135,0.283-2.135,1.524
	v8.276h8.687c1.242,0,1.804-0.908,1.249-2.02l-0.725-1.45c-0.555-1.111-0.001-1.894,1.231-1.74l1.891,0.237
	c1.232,0.153,1.715,1.149,1.074,2.213l-0.499,0.827c-0.642,1.063-0.15,1.933,1.091,1.933H70.5v-7.147c0-1.242-0.985-2.012-2.19-1.71
	l-1.452,0.363c-1.205,0.302-1.962-0.441-1.683-1.651l0.378-1.64c0.279-1.21,1.304-1.569,2.277-0.798l0.9,0.713
	c0.973,0.771,1.77,0.387,1.77-0.854v-8.4h-8.508C60.75,105.626,60.39,104.85,61.191,103.901z"/>
<path fill="#312783" stroke="#FFFFFF" stroke-width="1.5" stroke-miterlimit="10" stroke-opacity="0" d="M59.828,86.535l1.007,2.094
	c0.538,1.119-0.027,1.894-1.257,1.722l-2.63-0.369c-1.23-0.172-1.674-1.159-0.988-2.194l0.933-1.405
	c0.687-1.034,0.232-1.881-1.009-1.881h-8.51v6.825c0,1.242-0.847,1.697-1.882,1.012l-1.546-1.024
	c-1.035-0.686-2.1-0.255-2.367,0.958l-0.358,1.63c-0.267,1.213,0.515,2.025,1.737,1.805l2.193-0.395
	c1.222-0.22,2.222,0.616,2.222,1.857v8.457h8.333c1.242,0,2.124-1.007,1.959-2.238l-0.111-0.833
	c-0.164-1.231,0.692-2.014,1.903-1.738l1.438,0.327c1.211,0.275,1.546,1.276,0.745,2.226l-0.45,0.532
	c-0.801,0.948-0.44,1.725,0.801,1.725H70.5V84.501h-9.394C59.865,84.501,59.29,85.416,59.828,86.535z"/>
<path fill="#009FE3" stroke="#009FE3" stroke-width="1.5" stroke-miterlimit="10" d="M121.576,100.884l1.34,7.754
	c0.211,1.224,1.333,1.862,2.493,1.419l0.6-0.229c1.159-0.443,2.181,0.207,2.27,1.445l0.153,2.149
	c0.089,1.238-0.674,1.675-1.695,0.968l-1.354-0.935c-1.021-0.706-1.684-0.283-1.473,0.94l1.262,7.306l10.218-1.765
	c1.224-0.212,1.891,0.575,1.481,1.747l-0.27,0.774c-0.409,1.172,0.271,2.104,1.514,2.072l1.923-0.05
	c1.241-0.033,1.553-0.792,0.692-1.688l-1.551-1.613c-0.861-0.896-0.564-1.801,0.66-2.012l8.121-1.402l-3.596-20.817L121.576,100.884
	z"/>
<path fill="#F39200" stroke="#FFFFFF" stroke-width="1.5" stroke-miterlimit="10" stroke-opacity="0" d="M34.525,65.145
	l-1.618,2.038c-0.772,0.973-0.391,1.846,0.848,1.939l2.459,0.188c1.238,0.095,1.959-0.801,1.603-1.991l-0.533-1.78
	c-0.356-1.189,0.368-2.162,1.61-2.162h8.479v-7.401c0-1.242-0.927-1.842-2.06-1.333l-1.987,0.894
	c-1.132,0.509-1.987-0.088-1.898-1.327l0.209-2.93c0.089-1.238,1.025-1.717,2.081-1.063l1.736,1.075
	c1.056,0.653,1.919,0.172,1.919-1.069V42.25h-8.656c-1.242,0-1.649-0.813-0.906-1.808l1.248-1.668
	c0.744-0.994,0.337-1.856-0.903-1.915l-4.22-0.202c-1.241-0.06-1.665,0.719-0.943,1.729l1.447,2.027
	c0.722,1.011,0.296,1.837-0.946,1.837h-9.247v21.126h9.424C34.913,63.376,35.297,64.172,34.525,65.145z"/>
<path fill="#36A9E1" stroke="#FFFFFF" stroke-width="1.5" stroke-miterlimit="10" stroke-opacity="0" d="M114.947,138.146
	l-1.348,1.009c-0.994,0.745-1.937,0.347-2.094-0.886l-0.158-1.229c-0.156-1.232,0.693-1.966,1.889-1.631l1.344,0.376
	c1.195,0.334,2.174-0.408,2.174-1.649v-7.386h-9.718c-1.241,0-1.595-0.77-0.784-1.71l1.611-1.87c0.811-0.94,0.466-1.845-0.765-2.009
	l-2.493-0.332c-1.23-0.165-1.901,0.659-1.489,1.831l0.626,1.78c0.412,1.171-0.268,2.146-1.508,2.167l-8.607,0.143v7.054
	c0,1.241,0.789,1.618,1.754,0.836l1.648-1.338c0.965-0.782,1.641-0.412,1.502,0.822l-0.359,3.212
	c-0.139,1.233-1.062,1.63-2.051,0.88l-0.694-0.526c-0.989-0.749-1.8-0.347-1.8,0.895v9.291h23.127v-8.826
	C116.754,137.809,115.941,137.401,114.947,138.146z"/>
<path fill="#F39200" stroke="#FFFFFF" stroke-width="1.5" stroke-miterlimit="10" stroke-opacity="0" d="M95.427,137.69l0.694,0.526
	c0.989,0.75,1.912,0.354,2.051-0.88l0.359-3.212c0.139-1.234-0.537-1.604-1.502-0.822l-1.648,1.338
	c-0.965,0.782-1.754,0.405-1.754-0.836v-7.054h-8.892c-1.241,0-1.605,0.779-0.808,1.731l0.729,0.871
	c0.798,0.952,0.436,1.78-0.805,1.84l-2.326,0.113c-1.24,0.061-1.75-0.771-1.132-1.849l0.43-0.749
	c0.618-1.077,0.107-1.958-1.134-1.958H70.5v7.651c0,1.241-0.544,1.399-1.208,0.351l-1.159-1.828
	c-0.665-1.049-1.463-0.924-1.774,0.278l-0.793,3.063c-0.312,1.201,0.403,1.881,1.588,1.51l1.192-0.375
	c1.185-0.371,2.154,0.341,2.154,1.582v8.893h23.126v-9.291C93.627,137.344,94.438,136.941,95.427,137.69z"/>
<path fill="#009640" stroke="#FFFFFF" stroke-width="1.5" stroke-miterlimit="10" stroke-opacity="0" d="M130.646,128.621
	l1.253,1.854c0.696,1.028,0.26,1.724-0.969,1.544l-1.903-0.277c-1.229-0.18-1.741-1.215-1.139-2.3l0.397-0.717
	c0.603-1.086,0.08-1.975-1.162-1.975h-10.369v7.386c0,1.241-0.979,1.983-2.174,1.649l-1.344-0.376
	c-1.195-0.335-2.045,0.398-1.889,1.631l0.158,1.229c0.157,1.232,1.1,1.631,2.094,0.886l1.348-1.009
	c0.994-0.745,1.807-0.338,1.807,0.903v8.826h23.126v-21.125h-8.241C130.396,126.751,129.949,127.593,130.646,128.621z"/>
<path fill="#009640" stroke="#FFFFFF" stroke-width="1.5" stroke-miterlimit="10" stroke-opacity="0" d="M68.347,137.401
	l-1.192,0.375c-1.185,0.371-1.9-0.309-1.588-1.51l0.793-3.063c0.311-1.202,1.11-1.327,1.774-0.278l1.159,1.828
	c0.665,1.049,1.208,0.891,1.208-0.351v-7.651h-9.128c-1.242,0-1.733-0.87-1.091-1.933l0.499-0.827
	c0.642-1.063,0.158-2.06-1.074-2.213l-1.891-0.237c-1.232-0.153-1.786,0.629-1.231,1.74l0.725,1.45
	c0.555,1.111-0.007,2.02-1.249,2.02h-8.687v6.921c0,1.242-0.823,1.662-1.829,0.935l-1.386-1.004
	c-1.006-0.728-1.865-0.309-1.909,0.933l-0.106,2.988c-0.044,1.24,0.792,1.732,1.856,1.094l1.438-0.862
	c1.065-0.639,1.936-0.146,1.936,1.096v9.025H70.5v-8.893C70.5,137.742,69.531,137.03,68.347,137.401z"/>
<path fill="#FFED00" stroke="#FFFFFF" stroke-width="1.5" stroke-miterlimit="10" stroke-opacity="0" d="M34.807,82.595l-1.12-1.764
	c-0.665-1.048-0.194-1.87,1.046-1.828l3.187,0.11c1.241,0.043,1.683,0.917,0.982,1.941l-1.081,1.582
	c-0.701,1.025-0.258,1.864,0.984,1.864h8.568v-5.849c0-1.242,0.928-1.846,2.063-1.342l0.652,0.29
	c1.135,0.505,2.136-0.097,2.226-1.335l0.206-2.863c0.089-1.238-0.602-1.583-1.537-0.765l-1.912,1.673
	c-0.935,0.817-1.699,0.47-1.699-0.771V63.376h-8.479c-1.242,0-1.966,0.973-1.61,2.162l0.533,1.78
	c0.356,1.19-0.365,2.086-1.603,1.991l-2.459-0.188c-1.238-0.094-1.62-0.967-0.848-1.939l1.618-2.038
	c0.772-0.973,0.388-1.769-0.854-1.769h-9.424v21.125h9.512C35.001,84.501,35.473,83.644,34.807,82.595z"/>
<path fill="#95C11F" stroke="#FFFFFF" stroke-width="1.5" stroke-miterlimit="10" stroke-opacity="0" d="M33.565,107.632
	l-0.45,0.871c-0.57,1.104-0.02,2.017,1.222,2.029l2.056,0.021c1.242,0.013,1.722-0.84,1.066-1.896l-0.692-1.113
	c-0.655-1.055-0.175-1.918,1.066-1.918h9.541v-8.457c0-1.241-1-2.077-2.222-1.857l-2.193,0.395
	c-1.222,0.221-2.004-0.592-1.737-1.805l0.358-1.63c0.267-1.213,1.332-1.644,2.367-0.958l1.546,1.024
	c1.035,0.686,1.882,0.23,1.882-1.012v-6.825h-8.568c-1.242,0-1.685-0.839-0.984-1.864l1.081-1.582
	c0.701-1.024,0.259-1.898-0.982-1.941l-3.187-0.11c-1.241-0.042-1.711,0.78-1.046,1.828l1.12,1.764
	c0.666,1.049,0.194,1.906-1.047,1.906h-9.512v21.125h8.096C33.585,105.626,34.135,106.528,33.565,107.632z"/>
<path fill="#BE1622" stroke="#FFFFFF" stroke-width="1.5" stroke-miterlimit="10" stroke-opacity="0" d="M33.415,124.888
	l-0.525-0.768c-0.701-1.024-0.264-1.962,0.972-2.083l2.276-0.224c1.236-0.121,1.716,0.646,1.066,1.704l-0.803,1.31
	c-0.649,1.058-0.165,1.924,1.077,1.924h9.896v-8.276c0-1.241,0.961-1.928,2.135-1.524l1.143,0.393c1.175,0.402,2.075-0.281,2-1.521
	l-0.128-2.13c-0.074-1.239-0.941-1.635-1.926-0.879l-1.433,1.101c-0.985,0.756-1.791,0.358-1.791-0.883v-7.404h-9.541
	c-1.242,0-1.722,0.863-1.066,1.918l0.692,1.113c0.656,1.056,0.176,1.908-1.066,1.896l-2.056-0.021
	c-1.242-0.013-1.792-0.926-1.222-2.029l0.45-0.871c0.57-1.104,0.02-2.006-1.222-2.006h-8.096v21.125h8.185
	C33.674,126.751,34.116,125.913,33.415,124.888z"/>
<path fill="#662483" stroke="#FFFFFF" stroke-width="1.5" stroke-miterlimit="10" stroke-opacity="0" d="M45.438,137.755L44,138.617
	c-1.065,0.639-1.9,0.146-1.856-1.094l0.106-2.988c0.044-1.241,0.903-1.66,1.909-0.933l1.386,1.004
	c1.006,0.728,1.829,0.308,1.829-0.935v-6.921h-9.896c-1.242,0-1.726-0.866-1.077-1.924l0.803-1.31
	c0.649-1.059,0.169-1.825-1.066-1.704l-2.276,0.224c-1.236,0.121-1.673,1.059-0.972,2.083l0.525,0.768
	c0.701,1.025,0.259,1.863-0.983,1.863h-8.185v21.125h23.126v-9.025C47.374,137.609,46.503,137.116,45.438,137.755z"/>
<g>
	<path fill="#009FE3" d="M3.87,140.628h13.75v-7.775c0-0.62,0.15-1.096,0.451-1.428c0.301-0.331,0.679-0.497,1.134-0.497
		c0.464,0,0.84,0.163,1.128,0.49c0.288,0.328,0.432,0.806,0.432,1.435v9.262c0,0.835-0.185,1.436-0.554,1.802
		c-0.369,0.366-0.966,0.549-1.792,0.549H3.87c-0.773,0-1.354-0.175-1.74-0.523c-0.386-0.349-0.58-0.807-0.58-1.375
		c0-0.577,0.191-1.045,0.573-1.402C2.506,140.808,3.088,140.628,3.87,140.628z"/>
	<path fill="#009FE3" d="M4.824,109.316v8.642h4.639v-7.957c0-0.585,0.131-1.022,0.393-1.311c0.262-0.289,0.608-0.434,1.038-0.434
		s0.78,0.143,1.05,0.427s0.406,0.724,0.406,1.317v7.957h5.374v-8.938c0-0.603,0.14-1.058,0.419-1.363s0.651-0.458,1.115-0.458
		c0.447,0,0.81,0.152,1.089,0.458c0.279,0.306,0.419,0.761,0.419,1.363v10.424c0,0.836-0.185,1.437-0.554,1.802
		c-0.369,0.366-0.966,0.55-1.792,0.55H4.218c-0.55,0-0.999-0.082-1.347-0.246c-0.348-0.163-0.601-0.42-0.76-0.769
		c-0.159-0.349-0.238-0.794-0.238-1.337v-10.127c0-0.611,0.135-1.065,0.406-1.362c0.271-0.298,0.625-0.446,1.063-0.446
		c0.447,0,0.806,0.148,1.076,0.446C4.688,108.251,4.824,108.705,4.824,109.316z"/>
	<path fill="#009FE3" d="M12.685,92.383v1.344h6.07c0.799,0,1.387,0.176,1.766,0.529c0.378,0.354,0.567,0.813,0.567,1.382
		c0,0.611-0.198,1.085-0.593,1.421s-0.975,0.504-1.74,0.504H4.218c-0.825,0-1.422-0.185-1.791-0.556
		c-0.37-0.37-0.554-0.969-0.554-1.795v-6.239c0-0.861,0.037-1.598,0.109-2.209c0.073-0.611,0.221-1.162,0.445-1.653
		c0.249-0.594,0.605-1.119,1.069-1.576c0.464-0.456,1.003-0.803,1.617-1.04c0.615-0.236,1.266-0.354,1.953-0.354
		c1.409,0,2.535,0.398,3.376,1.194c0.842,0.797,1.439,2.005,1.792,3.623c0.361-0.68,0.894-1.33,1.598-1.95
		c0.705-0.62,1.455-1.173,2.249-1.66c0.795-0.486,1.512-0.865,2.152-1.137c0.64-0.271,1.081-0.406,1.321-0.406
		c0.25,0,0.496,0.079,0.741,0.238c0.245,0.16,0.438,0.377,0.58,0.652c0.142,0.276,0.213,0.595,0.213,0.956
		c0,0.431-0.101,0.793-0.303,1.085c-0.202,0.293-0.458,0.545-0.767,0.756c-0.309,0.211-0.765,0.497-1.366,0.859L16.1,87.888
		c-0.937,0.551-1.65,1.044-2.14,1.479c-0.49,0.436-0.825,0.877-1.005,1.324C12.775,91.139,12.685,91.702,12.685,92.383z
		 M4.746,90.187v3.54H9.94V90.29c0-0.921-0.08-1.696-0.239-2.325c-0.159-0.628-0.429-1.108-0.812-1.44
		c-0.382-0.331-0.909-0.497-1.579-0.497c-0.524,0-0.986,0.134-1.386,0.4c-0.399,0.268-0.698,0.638-0.896,1.111
		C4.841,87.986,4.746,88.869,4.746,90.187z"/>
	<path fill="#009FE3" d="M3.844,66.896l11.134-7.375H3.741c-0.73,0-1.278-0.157-1.644-0.472c-0.365-0.314-0.547-0.738-0.547-1.272
		c0-0.551,0.183-0.986,0.547-1.305c0.366-0.318,0.913-0.478,1.644-0.478H18.6c1.658,0,2.487,0.689,2.487,2.066
		c0,0.345-0.05,0.655-0.148,0.93c-0.099,0.276-0.255,0.534-0.47,0.775c-0.215,0.241-0.466,0.465-0.754,0.672
		c-0.288,0.207-0.582,0.414-0.883,0.62L7.826,68.252h11.07c0.722,0,1.268,0.168,1.637,0.504s0.554,0.767,0.554,1.292
		c0,0.543-0.187,0.978-0.561,1.305c-0.374,0.327-0.917,0.491-1.63,0.491H4.321c-0.619,0-1.104-0.069-1.456-0.207
		c-0.387-0.163-0.703-0.435-0.947-0.813S1.55,70.035,1.55,69.596c0-0.344,0.056-0.639,0.167-0.885
		c0.112-0.245,0.262-0.46,0.451-0.646c0.189-0.185,0.434-0.375,0.734-0.568C3.204,67.303,3.518,67.103,3.844,66.896z"/>
	<path fill="#009FE3" d="M4.824,32.705v8.642h4.639v-7.957c0-0.585,0.131-1.022,0.393-1.311c0.262-0.289,0.608-0.433,1.038-0.433
		s0.78,0.142,1.05,0.426s0.406,0.723,0.406,1.317v7.957h5.374v-8.938c0-0.603,0.14-1.057,0.419-1.363s0.651-0.458,1.115-0.458
		c0.447,0,0.81,0.153,1.089,0.458c0.279,0.306,0.419,0.76,0.419,1.363v10.424c0,0.835-0.185,1.436-0.554,1.802
		c-0.369,0.366-0.966,0.549-1.792,0.549H4.218c-0.55,0-0.999-0.082-1.347-0.245s-0.601-0.42-0.76-0.769
		c-0.159-0.349-0.238-0.794-0.238-1.337V32.705c0-0.611,0.135-1.065,0.406-1.363c0.271-0.297,0.625-0.446,1.063-0.446
		c0.447,0,0.806,0.149,1.076,0.446C4.688,31.639,4.824,32.093,4.824,32.705z"/>
	<path fill="#009FE3" d="M3.844,15.925l11.134-7.375H3.741c-0.73,0-1.278-0.157-1.644-0.472C1.733,7.764,1.55,7.339,1.55,6.805
		c0-0.551,0.183-0.986,0.547-1.305c0.366-0.318,0.913-0.478,1.644-0.478H18.6c1.658,0,2.487,0.689,2.487,2.066
		c0,0.345-0.05,0.655-0.148,0.93c-0.099,0.276-0.255,0.534-0.47,0.775c-0.215,0.241-0.466,0.465-0.754,0.672
		c-0.288,0.207-0.582,0.414-0.883,0.62L7.826,17.281h11.07c0.722,0,1.268,0.168,1.637,0.504s0.554,0.767,0.554,1.292
		c0,0.542-0.187,0.978-0.561,1.305c-0.374,0.328-0.917,0.491-1.63,0.491H4.321c-0.619,0-1.104-0.069-1.456-0.207
		c-0.387-0.164-0.703-0.435-0.947-0.813S1.55,19.064,1.55,18.625c0-0.344,0.056-0.639,0.167-0.885
		c0.112-0.245,0.262-0.46,0.451-0.646c0.189-0.185,0.434-0.375,0.734-0.568C3.204,16.332,3.518,16.132,3.844,15.925z"/>
</g>
<g>
	<path fill="#009FE3" d="M81.497,33.079c-0.247,0.366-0.569,0.603-0.97,0.711c-0.399,0.108-0.805,0.024-1.214-0.253
		c-0.372-0.25-0.589-0.59-0.649-1.019c-0.063-0.428,0.027-0.817,0.266-1.171c0.229-0.34,0.541-0.566,0.937-0.683
		s0.801-0.034,1.218,0.247c0.402,0.272,0.633,0.614,0.688,1.023C81.826,32.346,81.734,32.727,81.497,33.079z M85.083,33.61
		l7.587,5.117c0.526,0.354,0.84,0.748,0.939,1.18c0.102,0.432,0.021,0.839-0.237,1.224c-0.26,0.385-0.608,0.604-1.047,0.659
		c-0.438,0.055-0.912-0.091-1.426-0.438l-7.51-5.065c-0.52-0.35-0.829-0.733-0.931-1.152c-0.1-0.417-0.02-0.817,0.24-1.202
		s0.604-0.614,1.034-0.687C84.166,33.174,84.616,33.295,85.083,33.61z"/>
	<path fill="#009FE3" d="M96.841,24.892l3.49,2.354c0.552,0.372,0.88,0.776,0.987,1.212s0.022,0.858-0.254,1.269
		c-0.269,0.398-0.623,0.627-1.066,0.688c-0.441,0.062-0.938-0.094-1.49-0.467l-4.182-2.82c-0.66-0.445-1.188-0.77-1.585-0.971
		c-0.396-0.201-0.776-0.281-1.146-0.241c-0.368,0.041-0.697,0.276-0.986,0.706c-0.58,0.858-0.666,1.623-0.26,2.293
		c0.406,0.672,1.16,1.378,2.263,2.122l3.548,2.393c0.545,0.368,0.874,0.769,0.986,1.204s0.032,0.854-0.24,1.258
		c-0.268,0.397-0.627,0.629-1.077,0.693c-0.449,0.066-0.946-0.086-1.491-0.453l-7.51-5.065c-0.493-0.333-0.793-0.7-0.895-1.1
		c-0.103-0.401-0.028-0.786,0.223-1.158c0.242-0.359,0.563-0.578,0.965-0.657c0.404-0.077,0.816,0.026,1.238,0.312l0.252,0.168
		c-0.238-0.822-0.311-1.58-0.218-2.272c0.095-0.691,0.356-1.355,0.784-1.99c0.445-0.66,0.959-1.138,1.541-1.436
		c0.584-0.297,1.245-0.42,1.984-0.369c-0.24-0.805-0.32-1.549-0.238-2.23c0.083-0.682,0.332-1.33,0.747-1.945
		c0.483-0.719,1.043-1.241,1.675-1.57s1.297-0.444,1.995-0.347c0.626,0.096,1.448,0.487,2.468,1.175l5.125,3.457
		c0.553,0.372,0.881,0.776,0.988,1.212s0.022,0.858-0.254,1.269c-0.269,0.398-0.628,0.63-1.078,0.694
		c-0.449,0.065-0.946-0.086-1.491-0.454l-4.413-2.977c-0.564-0.38-1.033-0.66-1.405-0.842s-0.745-0.244-1.118-0.188
		c-0.373,0.055-0.705,0.298-0.995,0.728c-0.233,0.346-0.353,0.744-0.356,1.192c-0.004,0.45,0.107,0.877,0.337,1.284
		C95.001,23.512,95.719,24.135,96.841,24.892z"/>
	<path fill="#009FE3" d="M90.611,92.236l-2.223-0.52l-3.866,5.73l1.354,1.893c0.528,0.738,0.853,1.284,0.975,1.637
		c0.121,0.353,0.04,0.74-0.245,1.163c-0.242,0.359-0.589,0.588-1.037,0.686c-0.449,0.099-0.841,0.035-1.174-0.189
		c-0.192-0.13-0.369-0.296-0.531-0.498c-0.161-0.202-0.376-0.501-0.642-0.895l-6.722-9.78c-0.193-0.279-0.426-0.616-0.698-1.01
		c-0.271-0.393-0.473-0.753-0.606-1.08c-0.133-0.328-0.186-0.676-0.156-1.043c0.029-0.368,0.176-0.747,0.439-1.139
		c0.268-0.397,0.566-0.678,0.896-0.843c0.33-0.164,0.668-0.248,1.016-0.252c0.348-0.003,0.695,0.03,1.043,0.103
		c0.349,0.071,0.809,0.174,1.38,0.309l11.582,2.452c0.886,0.179,1.487,0.374,1.802,0.586c0.326,0.22,0.533,0.559,0.622,1.015
		c0.089,0.457,0.004,0.877-0.255,1.262c-0.152,0.225-0.322,0.389-0.511,0.495s-0.388,0.168-0.599,0.184
		c-0.212,0.016-0.502-0.01-0.871-0.077C91.215,92.357,90.89,92.295,90.611,92.236z M82.885,95.252l2.841-4.212l-7.252-1.8
		L82.885,95.252z"/>
	<path fill="#009FE3" d="M98.912,80.697l-0.337-0.227c0.186,0.582,0.297,1.137,0.332,1.665c0.036,0.528-0.019,1.041-0.164,1.54
		c-0.145,0.499-0.395,1.012-0.749,1.537c-0.428,0.635-0.943,1.115-1.546,1.44c-0.603,0.326-1.228,0.472-1.875,0.436
		c-0.778-0.05-1.689-0.426-2.734-1.131l-5.202-3.51c-0.525-0.354-0.839-0.737-0.938-1.149c-0.1-0.412-0.018-0.814,0.246-1.205
		c0.268-0.397,0.615-0.629,1.042-0.695c0.428-0.066,0.9,0.075,1.42,0.425l4.202,2.835c0.609,0.411,1.154,0.704,1.637,0.881
		c0.484,0.176,0.932,0.211,1.346,0.102c0.413-0.107,0.772-0.39,1.08-0.845c0.298-0.442,0.448-0.947,0.448-1.516
		c0.002-0.568-0.149-1.085-0.451-1.55c-0.272-0.398-1.036-1.021-2.293-1.869l-3.192-2.153c-0.52-0.351-0.828-0.735-0.928-1.156
		c-0.098-0.421-0.016-0.827,0.249-1.218c0.263-0.391,0.605-0.617,1.024-0.68s0.893,0.084,1.418,0.438l7.605,5.13
		c0.502,0.338,0.799,0.704,0.896,1.101c0.096,0.396,0.023,0.774-0.219,1.133c-0.242,0.359-0.572,0.568-0.99,0.627
		C99.823,81.142,99.38,81.014,98.912,80.697z"/>
	<path fill="#009FE3" d="M93.232,69.788l0.422-0.625l-0.789-0.532c-0.82-0.554-1.402-1.098-1.746-1.633
		c-0.343-0.534-0.459-1.125-0.344-1.771c0.114-0.646,0.463-1.401,1.047-2.267c1.033-1.532,1.926-2.045,2.674-1.539
		c0.244,0.164,0.398,0.385,0.463,0.661c0.066,0.277,0.024,0.525-0.123,0.743c-0.068,0.103-0.206,0.266-0.413,0.49
		c-0.208,0.224-0.37,0.422-0.486,0.595c-0.32,0.475-0.387,0.873-0.198,1.196c0.188,0.322,0.541,0.659,1.063,1.009l0.625,0.422
		l0.434-0.644c0.675-1,1.313-1.297,1.916-0.891c0.43,0.29,0.611,0.606,0.548,0.95c-0.064,0.344-0.255,0.75-0.569,1.218l-0.436,0.644
		l6.953,4.689c0.52,0.351,0.831,0.741,0.938,1.172c0.105,0.431,0.027,0.842-0.236,1.232c-0.251,0.371-0.596,0.59-1.035,0.652
		s-0.918-0.081-1.438-0.432l-6.952-4.688l-0.486,0.721c-0.264,0.392-0.555,0.634-0.873,0.726c-0.319,0.093-0.62,0.044-0.901-0.146
		C92.658,71.316,92.641,70.666,93.232,69.788z"/>
	<path fill="#009FE3" d="M96.798,58.818l4.01,2.704c-0.179-0.839-0.232-1.607-0.159-2.304c0.074-0.697,0.364-1.424,0.875-2.18
		c0.588-0.872,1.311-1.497,2.166-1.876c0.857-0.378,1.801-0.482,2.83-0.315s2.083,0.614,3.161,1.341
		c0.794,0.536,1.455,1.129,1.983,1.778c0.526,0.649,0.904,1.331,1.132,2.044s0.29,1.435,0.187,2.161
		c-0.104,0.728-0.379,1.422-0.824,2.082c-0.271,0.404-0.576,0.752-0.912,1.042c-0.337,0.291-0.668,0.509-0.993,0.653
		c-0.325,0.144-0.631,0.247-0.917,0.311c-0.285,0.064-0.692,0.128-1.221,0.191l0.26,0.176c0.494,0.333,0.787,0.703,0.881,1.111
		c0.092,0.407,0.017,0.795-0.229,1.16c-0.251,0.372-0.579,0.582-0.979,0.633c-0.403,0.051-0.852-0.091-1.346-0.424L95.24,61.376
		c-0.531-0.358-0.861-0.737-0.989-1.136s-0.062-0.79,0.198-1.174c0.272-0.404,0.611-0.628,1.019-0.671
		C95.873,58.353,96.317,58.493,96.798,58.818z M104.68,63.953c1.046,0.705,2.01,1.008,2.894,0.908
		c0.883-0.1,1.585-0.537,2.108-1.313c0.445-0.66,0.543-1.423,0.291-2.287c-0.252-0.865-0.912-1.658-1.983-2.381
		c-0.692-0.467-1.354-0.77-1.99-0.908c-0.633-0.138-1.21-0.116-1.729,0.065c-0.52,0.182-0.943,0.516-1.272,1.003
		c-0.337,0.5-0.501,1.038-0.492,1.612c0.009,0.575,0.195,1.148,0.561,1.721C103.432,62.947,103.97,63.473,104.68,63.953z"/>
	<path fill="#009FE3" d="M114.512,52.592l2.192,1.479c0.532,0.359,0.848,0.754,0.944,1.184c0.098,0.43,0.017,0.836-0.242,1.221
		c-0.256,0.379-0.6,0.599-1.033,0.66c-0.434,0.063-0.913-0.084-1.439-0.439l-7.308-4.928c-1.18-0.797-1.481-1.62-0.907-2.473
		c0.295-0.436,0.645-0.657,1.049-0.664c0.406-0.006,0.885,0.163,1.436,0.507c-0.326-0.677-0.516-1.274-0.569-1.79
		c-0.053-0.516,0.106-1.05,0.479-1.601c0.372-0.552,0.87-0.994,1.496-1.328c0.627-0.333,1.167-0.346,1.622-0.039
		c0.32,0.217,0.511,0.505,0.569,0.867c0.059,0.361,0.002,0.671-0.171,0.927c-0.064,0.096-0.28,0.289-0.647,0.577
		c-0.367,0.289-0.646,0.574-0.837,0.856c-0.259,0.385-0.37,0.767-0.332,1.146c0.037,0.38,0.209,0.771,0.517,1.174
		c0.307,0.402,0.716,0.814,1.229,1.235S113.724,52.061,114.512,52.592z"/>
	<path fill="#009FE3" d="M125.147,41.803l-0.337-0.228c0.186,0.583,0.297,1.138,0.332,1.665c0.035,0.528-0.02,1.041-0.164,1.54
		s-0.396,1.012-0.75,1.537c-0.428,0.635-0.943,1.115-1.545,1.44c-0.603,0.326-1.228,0.472-1.875,0.436
		c-0.779-0.049-1.689-0.426-2.734-1.131l-5.202-3.51c-0.525-0.354-0.839-0.737-0.938-1.148c-0.1-0.413-0.018-0.814,0.246-1.205
		c0.269-0.398,0.616-0.63,1.043-0.696c0.428-0.066,0.9,0.075,1.42,0.425l4.202,2.836c0.609,0.41,1.154,0.703,1.637,0.88
		c0.483,0.177,0.932,0.211,1.345,0.103c0.414-0.108,0.773-0.391,1.08-0.846c0.299-0.442,0.449-0.947,0.449-1.516
		c0.002-0.568-0.149-1.085-0.451-1.55c-0.273-0.398-1.037-1.021-2.293-1.868l-3.193-2.154c-0.52-0.35-0.828-0.735-0.927-1.156
		c-0.098-0.421-0.016-0.826,0.248-1.218c0.264-0.391,0.606-0.617,1.025-0.68c0.419-0.062,0.893,0.084,1.418,0.438l7.605,5.131
		c0.501,0.337,0.799,0.704,0.896,1.1c0.097,0.396,0.023,0.774-0.219,1.133c-0.242,0.359-0.572,0.568-0.989,0.627
		S125.615,42.118,125.147,41.803z"/>
	<path fill="#009FE3" d="M133.152,26.119c0.326,0.219,0.61,0.553,0.851,1c0.239,0.445,0.393,0.982,0.459,1.61
		c0.065,0.628-0.003,1.315-0.209,2.063s-0.565,1.503-1.08,2.266c-1.095,1.622-2.421,2.569-3.981,2.841
		c-1.559,0.272-3.133-0.127-4.723-1.199c-1.076-0.727-1.889-1.577-2.435-2.551c-0.546-0.975-0.779-2.01-0.7-3.103
		c0.081-1.093,0.49-2.188,1.229-3.284c0.458-0.68,0.979-1.235,1.561-1.669c0.581-0.434,1.161-0.741,1.741-0.924
		s1.119-0.257,1.615-0.226s0.898,0.15,1.207,0.359c0.313,0.211,0.5,0.508,0.56,0.889c0.061,0.381-0.022,0.738-0.247,1.071
		c-0.146,0.218-0.324,0.361-0.534,0.43s-0.499,0.108-0.87,0.119c-0.704-0.008-1.295,0.081-1.775,0.266
		c-0.479,0.185-0.9,0.546-1.264,1.085c-0.522,0.775-0.642,1.605-0.355,2.488s0.954,1.679,2.005,2.388
		c0.494,0.333,0.988,0.578,1.484,0.735c0.497,0.157,0.967,0.219,1.415,0.185c0.447-0.034,0.855-0.164,1.229-0.39
		c0.37-0.225,0.688-0.533,0.951-0.924c0.354-0.525,0.537-1.058,0.547-1.598c0.008-0.539-0.139-1.121-0.444-1.747
		c-0.187-0.359-0.301-0.688-0.343-0.986c-0.041-0.299,0.029-0.583,0.211-0.852c0.216-0.32,0.518-0.504,0.902-0.552
		C132.545,25.863,132.877,25.932,133.152,26.119z"/>
	<path fill="#009FE3" d="M126.365,15.189l3.895,2.627c-0.159-0.594-0.244-1.124-0.256-1.593c-0.009-0.468,0.059-0.933,0.206-1.394
		c0.147-0.46,0.37-0.911,0.669-1.354c0.449-0.666,0.99-1.162,1.619-1.488c0.631-0.326,1.314-0.455,2.051-0.387
		c0.439,0.025,0.876,0.138,1.307,0.336c0.432,0.197,0.9,0.466,1.406,0.808l5.029,3.392c0.525,0.355,0.842,0.743,0.949,1.166
		c0.107,0.422,0.026,0.832-0.241,1.229c-0.584,0.865-1.408,0.939-2.473,0.222l-4.433-2.99c-0.84-0.566-1.57-0.877-2.19-0.932
		s-1.166,0.268-1.638,0.966c-0.315,0.469-0.467,0.979-0.454,1.533c0.014,0.555,0.188,1.08,0.522,1.578
		c0.298,0.405,0.945,0.945,1.945,1.619l3.471,2.341c0.52,0.351,0.837,0.734,0.951,1.152c0.115,0.418,0.032,0.835-0.249,1.252
		c-0.584,0.865-1.407,0.938-2.472,0.221l-11.385-7.679c-0.533-0.359-0.855-0.742-0.968-1.148c-0.112-0.407-0.03-0.816,0.247-1.227
		c0.281-0.416,0.635-0.651,1.062-0.704C125.364,14.684,125.84,14.835,126.365,15.189z"/>
</g>
</svg>
