<?xml version="1.0" encoding="UTF-8"?>
<svg width="1200pt" height="1200pt" version="1.1" viewBox="0 0 1200 1200" xmlns="http://www.w3.org/2000/svg">
 <g fill="#fff">
  <path d="m1003.4 127.83h-208.53c3.3945 11.094 5.0039 22.867 5.0039 35.094v66.793h104.13c18.793 0 34.188 15.398 34.188 34.188v744c0 18.793-15.398 34.188-34.188 34.188h-607.9c-18.793 0-34.211-15.395-34.211-34.188l-0.003906-744c0-18.793 15.418-34.188 34.211-34.188h104.13v-66.793c0-12.227 1.6055-24 4.9805-35.094l-208.53-0.003907c-20.152 0-36.68 16.527-36.68 36.906v942.34c0 20.379 16.527 36.906 36.68 36.906h806.72c20.172 0 36.68-16.527 36.68-36.906v-942.34c0-20.375-16.508-36.906-36.68-36.906"/>
  <path d="m434.16 252.39h331.68c6.2695 0 11.32-5.0703 11.32-11.32v-78.207c0-58.914-47.934-106.84-106.84-106.84h-140.61c-58.938 0-106.87 47.934-106.87 106.84v78.203c0 6.25 5.0742 11.324 11.32 11.324"/>
  <path d="m813.1 390.09h-429.44c-6.25 0-11.32 5.0742-11.32 11.32 0 6.25 5.0703 11.32 11.32 11.32h429.44c6.2461 0 11.32-5.0703 11.32-11.32 0-6.2461-5.0742-11.32-11.32-11.32"/>
  <path d="m805.82 553.63c6.2461 0 11.32-5.0703 11.32-11.32s-5.0742-11.32-11.32-11.32h-323.48c-6.25 0-11.32 5.0742-11.32 11.32 0 6.25 5.0703 11.32 11.32 11.32z"/>
  <path d="m385.65 557.89c2.1289 2.1289 5.0039 3.3047 8.0156 3.3047 2.9883 0 5.8633-1.1758 7.9922-3.3047l60.043-60.066c4.4375-4.4141 4.4375-11.594 0-16.008-4.4141-4.4141-11.57-4.4141-16.008 0l-52.031 52.055-20.195-20.195c-4.4141-4.4141-11.594-4.4141-16.008 0-4.4141 4.4375-4.4141 11.594 0 16.008z"/>
  <path d="m824.42 692.49c0-6.25-5.0742-11.32-11.32-11.32h-429.44c-6.25 0-11.32 5.0742-11.32 11.32 0 6.25 5.0703 11.32 11.32 11.32h429.44c6.2461 0 11.32-5.0703 11.32-11.32"/>
  <path d="m482.34 822.07c-6.25 0-11.32 5.0742-11.32 11.32 0 6.25 5.0703 11.32 11.32 11.32h323.48c6.25 0 11.32-5.0703 11.32-11.32s-5.0703-11.32-11.32-11.32z"/>
  <path d="m357.45 820.75 28.188 28.211c2.1289 2.1055 5.0039 3.3047 8.0156 3.3047 2.9883 0 5.8633-1.1992 7.9922-3.3047l60.043-60.066c4.4375-4.4141 4.4375-11.57 0-16.008-4.4141-4.4141-11.57-4.4141-16.008 0l-52.031 52.055-20.195-20.195c-4.4141-4.4141-11.594-4.4141-16.008 0-4.4102 4.4141-4.4102 11.59 0.003906 16.004"/>
 </g>
</svg>
