<svg xmlns="http://www.w3.org/2000/svg" viewBox="0 0 16 16" fill="none" x="0px" y="0px"><path d="M11.2101 6.57993V5.48993C11.2101 4.6801 10.8891 3.90329 10.3174 3.32971C9.74569 2.75614 8.96993 2.43258 8.16011 2.42993C7.26633 2.42993 6.40915 2.78498 5.77716 3.41698C5.14516 4.04898 4.79011 4.90615 4.79011 5.79993V6.57993C4.43762 6.70066 4.13159 6.92837 3.91468 7.23132C3.69778 7.53426 3.58082 7.89734 3.58011 8.26993V11.6299C3.57878 11.8667 3.62443 12.1013 3.71442 12.3203C3.80441 12.5393 3.93695 12.7383 4.10436 12.9057C4.27177 13.0731 4.47073 13.2056 4.68971 13.2956C4.9087 13.3856 5.14336 13.4313 5.38011 13.4299H10.6201C10.8569 13.4313 11.0915 13.3856 11.3105 13.2956C11.5295 13.2056 11.7284 13.0731 11.8959 12.9057C12.0633 12.7383 12.1958 12.5393 12.2858 12.3203C12.3758 12.1013 12.4214 11.8667 12.4201 11.6299V8.26993C12.4194 7.89734 12.3024 7.53426 12.0855 7.23132C11.8686 6.92837 11.5626 6.70066 11.2101 6.57993V6.57993ZM8.45011 11.0499V12.1799H7.55011V11.0499C7.37853 10.9509 7.24443 10.798 7.16861 10.6149C7.0928 10.4319 7.0795 10.2289 7.13077 10.0376C7.18205 9.8462 7.29504 9.6771 7.45222 9.55649C7.6094 9.43588 7.80199 9.37051 8.00011 9.37051C8.19823 9.37051 8.39081 9.43588 8.54799 9.55649C8.70517 9.6771 8.81816 9.8462 8.86944 10.0376C8.92072 10.2289 8.90742 10.4319 8.8316 10.6149C8.75578 10.798 8.62168 10.9509 8.45011 11.0499V11.0499ZM9.87011 6.46993H6.13011V5.79993C6.13011 5.2695 6.34082 4.76079 6.71589 4.38572C7.09097 4.01065 7.59967 3.79993 8.13011 3.79993C8.58458 3.79458 9.0227 3.96933 9.34873 4.28599C9.67477 4.60266 9.86221 5.03549 9.87011 5.48993V6.46993Z" fill="black"></path></svg>