<?xml version="1.0" encoding="utf-8"?>
<!-- Generator: Adobe Illustrator 26.0.3, SVG Export Plug-In . SVG Version: 6.00 Build 0)  -->
<svg version="1.1" id="Logo" xmlns="http://www.w3.org/2000/svg" xmlns:xlink="http://www.w3.org/1999/xlink" x="0px" y="0px"
	 viewBox="0 0 1369.4 1116" style="enable-background:new 0 0 1369.4 1116;" xml:space="preserve">
<path d="M1141.6,1008c36.9,54.8,65,94.3,72.2,101.8c4.4,5,11.9,9.2,19.7,3.3l41.1-29.6c5.5-5.3,6.1-14.3,1.7-19.7
	c-4.8-6.4-32.6-43.6-70.7-94.8c-1.2-1.6-2.2-3.2-3-5c-1.7-3.5-4.6-9.7-2-15c1.1-2.1,2.9-3.9,5-5c38.1-11.3,66.4-19.8,79-23.3
	c3.4-0.9,6.4-2.9,8.5-5.6c4.5-6.4,3-16-5.2-20.7l-286.2-172.7c-9.9-6.6-23,3.3-21.4,16.5l70.7,327.3c2.2,14.7,19.4,15.2,24.7,4.9
	l45.2-62.4c2.5-3.4,9.8-7.7,16.8-3.9C1139.3,1005,1140.7,1006.4,1141.6,1008z M1363.6,249c-14.9-28.7-54-33.4-68.7-33
	c-35.9-0.3-413.5-1-932.2,0c-10.4,0.6-20.7-1.4-30.1-6c-24.3-12.1-34.8-37.2-42.7-66.6C271.9,90.6,268,22.2,217.6,3
	c-3.8-1.3-9.2-2.9-20.1-2.9C181,0.1,72.9,0.1,71.6,0c-95.5,3.8-95.5,140.2,0,144h30.2c15.8-0.6,30.9,5.9,39.8,24
	c8.2,15,14,31.2,17.4,48c52.1,241.2,118.7,503.3,182.6,720.1c4,16.7,11.5,32.3,22,45.9c12.4,17.4,29.3,27,50.1,26h377.9
	c95.5-3.8,95.5-140.2,0-144c-1.8-0.1-3.3,0-4,0c-63.2-0.6-264,1.4-277-1c-38.7-8.2-55.7-43.3-61.1-71.3
	c-10.5-45.1-43.9-178.1-86.9-359.7c-1.7-8.2-2-16.7-1-25c1-8.2,2-16.4,7-24c15.6-22.3,51.3-21.8,70-23c4.7-0.1,8.5-0.1,11,0
	c418.2,0.7,650.9-1.5,674,1c13.8,1.5,44.7,12.2,55,39c2.5,6.7,3.5,13.9,3,21c-0.2,3.5-0.7,6.9-1.5,10.2
	c-16.4,66.7-32.5,133.4-48.5,200.1h-0.1c-0.1,0.6-0.2,1.2-0.4,1.8l-0.3,1.2l0,0c-13.6,92.4,121,120.8,145.5,30.4l0,0
	c38.9-141.3,58.8-234.8,91.3-376.8C1369.1,281.9,1372.2,265.3,1363.6,249z"/>
</svg>
