<?xml version="1.0" encoding="utf-8"?>
<!-- Generator: Adobe Illustrator 26.0.1, SVG Export Plug-In . SVG Version: 6.00 Build 0)  -->
<svg version="1.1" id="Layer_1" xmlns:serif="http://www.serif.com/"
	 xmlns="http://www.w3.org/2000/svg" xmlns:xlink="http://www.w3.org/1999/xlink" x="0px" y="0px" viewBox="0 0 100 100"
	 style="enable-background:new 0 0 100 100;" xml:space="preserve">
<style type="text/css">
	.st0{fill-rule:evenodd;clip-rule:evenodd;fill:#FFFFFF;}
</style>
<path class="st0" d="M48.3,5.4v89.3c0,1.2-0.5,2.3-1.5,3.1c-0.9,0.7-2.2,1-3.3,0.7L6.1,88.4c-1.7-0.4-3-2-3-3.8V15.4
	c0-1.8,1.2-3.3,3-3.8L43.5,1.6c1.2-0.3,2.4,0,3.3,0.7S48.3,4.2,48.3,5.4z M67.4,59.6v29c0,2.1-1.7,3.9-3.9,3.9H52.2v-85h11.3
	c2.1,0,3.9,1.7,3.9,3.9v29h-4.5c-3.4,0-6.2,2.8-6.2,6.2v6.8c0,3.4,2.8,6.2,6.2,6.2C62.9,59.6,67.4,59.6,67.4,59.6z M82.5,44.2v-3.9
	c0-1,0.6-1.8,1.5-2.2c0.9-0.4,1.9-0.2,2.6,0.5l9.7,9.7c0.9,0.9,0.9,2.4,0,3.4l-9.7,9.7c-0.7,0.7-1.7,0.9-2.6,0.5
	c-0.9-0.4-1.5-1.2-1.5-2.2v-3.9H62.9c-1.3,0-2.4-1.1-2.4-2.4v-6.8c0-1.3,1.1-2.4,2.4-2.4C62.9,44.2,82.5,44.2,82.5,44.2z"/>
</svg>
