<svg id="Logo" xmlns="http://www.w3.org/2000/svg" viewBox="0 0 1369.4 1115.99"><defs><style>.cls-1{fill:#fff;}</style></defs><path class="cls-1" d="M1213.52,1188c36.87,54.82,65,94.31,72.24,101.84,4.37,5,11.87,9.16,19.73,3.29l41.12-29.6c5.5-5.3,6.05-14.29,1.65-19.74-4.83-6.37-32.55-43.63-70.74-94.79a29.94,29.94,0,0,1-3-5c-1.66-3.52-4.58-9.69-2-15a11.56,11.56,0,0,1,5-5c38.07-11.27,66.41-19.82,79-23.3a15.75,15.75,0,0,0,8.51-5.63c4.49-6.38,3-16-5.22-20.68l-286.18-172.7c-9.87-6.58-23,3.29-21.38,16.45l70.72,327.29c2.18,14.65,19.39,15.21,24.67,4.94l45.16-62.43c2.52-3.38,9.82-7.71,16.76-3.94A11.27,11.27,0,0,1,1213.52,1188Zm222-759c-14.89-28.74-54-33.4-68.7-33-35.9-.31-413.51-1-932.21,0a60.51,60.51,0,0,1-30.09-6c-24.33-12.12-34.8-37.23-42.73-66.65-18-52.73-21.86-121.16-72.27-140.35-3.77-1.28-9.16-2.93-20.12-2.93-16.52,0-124.64,0-125.88-.07-95.46,3.77-95.53,140.2,0,144H173.7c15.83-.56,30.88,5.89,39.82,24a172.21,172.21,0,0,1,17.4,48C283,637.24,349.65,899.27,413.55,1116.13a121.09,121.09,0,0,0,22,45.87c12.35,17.38,29.27,27,50.07,26H863.52c95.51-3.79,95.48-140.23,0-144-1.82-.07-3.28,0-4,0-63.18-.64-264,1.41-277-1-38.73-8.16-55.7-43.31-61.06-71.26C511,926.64,477.58,793.61,434.52,612a78.82,78.82,0,0,1-1-25c1-8.24,2-16.44,7-24,15.56-22.32,51.27-21.75,70-23,4.68-.11,8.52-.06,11,0,418.18.73,650.89-1.5,674,1,13.84,1.51,44.66,12.18,55,39a51.14,51.14,0,0,1,3,21,56.11,56.11,0,0,1-1.49,10.25q-24.54,100-48.54,200.06h-.06c-.14.61-.25,1.23-.38,1.84l-.3,1.24h0c-13.57,92.41,121,120.8,145.46,30.39h0C1387.13,703.5,1407,609.94,1439.52,468,1441,461.88,1444.12,445.31,1435.52,429Z" transform="translate(-71.9 -180)"/></svg>