<svg id="Layer_1" data-name="Layer 1" xmlns="http://www.w3.org/2000/svg" viewBox="0 0 93.87 97.13"><defs><style>.cls-1{fill-rule:evenodd;}</style></defs><path class="cls-1" d="M48.3,5.4V94.7a3.87,3.87,0,0,1-4.8,3.8L6.1,88.4a4,4,0,0,1-3-3.8V15.4a3.94,3.94,0,0,1,3-3.8l37.4-10a3.84,3.84,0,0,1,3.3.7A4,4,0,0,1,48.3,5.4ZM67.4,59.6v29a3.9,3.9,0,0,1-3.9,3.9H52.2V7.5H63.5a3.9,3.9,0,0,1,3.9,3.9v29H62.9a6.23,6.23,0,0,0-6.2,6.2v6.8a6.23,6.23,0,0,0,6.2,6.2ZM82.5,44.2V40.3A2.39,2.39,0,0,1,84,38.1a2.3,2.3,0,0,1,2.6.5l9.7,9.7a2.48,2.48,0,0,1,0,3.4l-9.7,9.7a2.3,2.3,0,0,1-2.6.5,2.39,2.39,0,0,1-1.5-2.2V55.8H62.9a2.43,2.43,0,0,1-2.4-2.4V46.6a2.43,2.43,0,0,1,2.4-2.4Z" transform="translate(-3.1 -1.48)"/></svg>