<?xml version="1.0" encoding="UTF-8"?>
<svg width="1200pt" height="1200pt" version="1.1" viewBox="0 0 1200 1200" xmlns="http://www.w3.org/2000/svg">
 <g fill="#fff">
  <path d="m623.67 1086.7c-16.523-8.6719-33.047-17.461-49.57-26.133-39.727-20.977-79.336-41.953-119.06-62.93-48.164-25.43-96.445-50.859-144.61-76.406-41.484-21.914-83.086-43.828-124.57-65.742-20.156-10.664-40.195-21.797-60.586-31.992-0.23438-0.11719-0.58594-0.35156-0.82031-0.46875 7.7344 13.477 15.469 26.953 23.203 40.43v-52.617-125.62-151.99-131.95c0-21.328 0.46875-42.656 0-63.984v-0.82031c-23.555 13.477-46.992 26.953-70.547 40.43 16.523 8.7891 33.047 17.461 49.57 26.25 39.727 20.977 79.336 41.953 119.06 62.93 48.164 25.43 96.445 50.977 144.61 76.406 41.484 21.914 83.086 43.945 124.57 65.859 20.156 10.664 40.195 21.797 60.586 31.992 0.23438 0.11719 0.58594 0.35156 0.82031 0.46875-7.7344-13.477-15.469-26.953-23.203-40.43v52.5 125.51 151.88 131.84c0 21.328-0.35156 42.656 0 63.984v0.82031c0 24.492 21.562 48.047 46.875 46.875 25.43-1.1719 46.875-20.625 46.875-46.875v-52.5-125.51-151.88-131.84c0-21.328 0.35156-42.656 0-63.984v-0.82031c0-15.938-8.7891-32.812-23.203-40.43-16.523-8.7891-33.047-17.461-49.57-26.25-39.727-20.977-79.336-41.953-119.06-62.93-48.164-25.43-96.445-50.977-144.61-76.406-41.484-21.914-83.086-43.945-124.57-65.859-20.156-10.664-40.312-21.562-60.586-31.992-0.23438-0.11719-0.58594-0.35156-0.82031-0.46875-15-7.9688-32.344-8.7891-47.344 0-14.297 8.3203-23.203 23.906-23.203 40.43v52.617 125.62 151.99 131.95c0 21.328-0.35156 42.656 0 63.984v0.82031c0 15.938 8.7891 32.812 23.203 40.43 16.523 8.6719 33.047 17.461 49.57 26.133 39.727 20.977 79.336 41.953 119.06 62.93 48.164 25.43 96.445 50.859 144.61 76.406 41.484 21.914 83.086 43.828 124.57 65.742 20.156 10.664 40.312 21.562 60.586 31.992 0.23438 0.11719 0.58594 0.35156 0.82031 0.46875 11.016 5.8594 23.906 8.0859 36.094 4.6875 10.898-3.0469 22.617-11.367 28.008-21.562 11.484-21.445 6.3281-51.68-16.758-63.984z"/>
  <path d="m1075.7 823.01c-16.523 8.6719-33.047 17.461-49.57 26.133-39.727 20.977-79.336 41.953-119.06 62.93-48.164 25.43-96.445 50.859-144.61 76.406-41.484 21.914-83.086 43.828-124.57 65.742-20.156 10.664-40.664 20.977-60.586 31.992-0.23438 0.11719-0.58594 0.35156-0.82031 0.46875 23.555 13.477 46.992 26.953 70.547 40.43v-52.5-125.51-151.88-131.84c0-21.328 0.46875-42.656 0-63.984v-0.82031c-7.7344 13.477-15.469 26.953-23.203 40.43 16.523-8.7891 33.047-17.461 49.57-26.25 39.727-20.977 79.336-41.953 119.06-62.93 48.164-25.43 96.445-50.977 144.61-76.406 41.484-21.914 83.086-43.945 124.57-65.859 20.156-10.664 40.664-20.977 60.586-31.992 0.23438-0.11719 0.58594-0.35156 0.82031-0.46875-23.555-13.477-46.992-26.953-70.547-40.43v52.617 125.62 151.99 131.95c0 21.328-0.35156 42.656 0 63.984v0.82031c0 24.492 21.562 48.047 46.875 46.875 25.43-1.1719 46.875-20.625 46.875-46.875v-52.617-125.62-151.99-131.95c0-21.328 0.35156-42.656 0-63.984v-0.82031c0-16.523-8.9062-32.109-23.203-40.43-15-8.7891-32.344-7.9688-47.344 0-16.523 8.7891-33.047 17.461-49.57 26.25-39.727 20.977-79.336 41.953-119.06 62.93-48.164 25.43-96.445 50.977-144.61 76.406-41.484 21.914-83.086 43.945-124.57 65.859-20.156 10.664-40.664 20.977-60.586 31.992-0.23438 0.11719-0.58594 0.35156-0.82031 0.46875-14.414 7.6172-23.203 24.492-23.203 40.43v52.5 125.51 151.88 131.84c0 21.328-0.35156 42.656 0 63.984v0.82031c0 16.523 8.9062 32.109 23.203 40.43 15 8.7891 32.344 7.9688 47.344 0 16.523-8.6719 33.047-17.461 49.57-26.133 39.727-20.977 79.336-41.953 119.06-62.93 48.164-25.43 96.445-50.859 144.61-76.406 41.484-21.914 83.086-43.828 124.57-65.742 20.156-10.664 40.664-20.859 60.586-31.992 0.23438-0.11719 0.58594-0.35156 0.82031-0.46875 21.68-11.484 30.117-43.477 16.875-64.102-14.297-22.031-40.898-28.945-64.219-16.758z"/>
  <path d="m1075.7 296.13c-16.523 8.7891-33.047 17.461-49.57 26.25-39.727 20.977-79.336 41.953-119.06 62.93-48.164 25.43-96.445 50.977-144.61 76.406-41.484 21.914-83.086 43.945-124.57 65.859-20.156 10.664-40.664 20.977-60.586 31.992-0.23438 0.11719-0.58594 0.35156-0.82031 0.46875h47.344c-16.523-8.7891-33.047-17.461-49.57-26.25-39.727-20.977-79.336-41.953-119.06-62.93-48.164-25.43-96.445-50.977-144.61-76.406-41.484-21.914-83.086-43.945-124.57-65.859-20.156-10.664-40.195-21.797-60.586-31.992-0.23438-0.11719-0.58594-0.35156-0.82031-0.46875v80.977c16.523-8.6719 33.047-17.461 49.57-26.133 39.727-20.977 79.336-41.953 119.06-62.93 48.164-25.43 96.445-50.977 144.61-76.406 41.484-21.914 83.086-43.828 124.57-65.859 20.156-10.664 40.664-20.977 60.586-31.992 0.23438-0.11719 0.58594-0.35156 0.82031-0.46875h-47.344c16.523 8.6719 33.047 17.461 49.57 26.133 39.727 20.977 79.336 41.953 119.06 62.93 48.164 25.43 96.445 50.977 144.61 76.406 41.484 21.914 83.086 43.828 124.57 65.859 20.156 10.664 40.312 21.562 60.586 31.992 0.23438 0.11719 0.58594 0.35156 0.82031 0.46875 11.016 5.8594 23.906 8.0859 36.094 4.6875 10.898-3.0469 22.617-11.367 28.008-21.562 11.484-21.68 6.3281-51.914-16.875-64.102-16.758-8.7891-33.516-17.695-50.273-26.484-39.844-20.977-79.57-42.07-119.41-63.047-48.398-25.547-96.797-51.094-145.2-76.641-41.367-21.914-82.734-43.711-124.1-65.625-19.922-10.547-39.727-21.445-59.766-31.523-16.289-8.2031-32.461-8.3203-48.633 0-2.2266 1.1719-4.3359 2.3438-6.5625 3.3984-10.312 5.3906-20.625 10.898-30.938 16.289-37.617 19.922-75.352 39.844-112.97 59.648-47.812 25.312-95.742 50.742-143.79 76.055-43.359 22.852-86.602 45.82-129.96 68.672-23.672 12.539-47.344 25.078-71.016 37.5-1.0547 0.58594-2.2266 1.1719-3.2812 1.7578-30.586 16.172-30.469 64.805 0 80.977 16.758 8.9062 33.516 17.695 50.273 26.602 39.844 21.094 79.57 42.07 119.41 63.164 48.398 25.547 96.797 51.211 145.2 76.758 41.367 21.914 82.734 43.711 124.1 65.625 19.922 10.547 39.727 21.445 59.766 31.641 16.289 8.2031 32.461 8.3203 48.633 0 2.2266-1.1719 4.3359-2.3438 6.5625-3.3984 10.312-5.3906 20.625-10.898 30.938-16.289 37.617-19.922 75.352-39.844 112.97-59.766 47.93-25.312 95.977-50.742 143.91-76.055 43.359-22.852 86.602-45.82 129.96-68.672 23.672-12.539 47.344-25.078 71.016-37.617 1.0547-0.58594 2.2266-1.1719 3.2812-1.7578 21.68-11.484 30.117-43.477 16.875-64.102-14.297-22.383-40.898-29.414-64.219-17.109z"/>
  <path d="m373.95 509.18c16.523-8.7891 33.047-17.461 49.57-26.25 39.727-20.977 79.336-41.953 119.06-62.93 48.164-25.43 96.445-50.977 144.61-76.406 41.484-21.914 83.086-43.945 124.57-65.859 20.156-10.664 40.664-20.977 60.586-31.992 0.23438-0.11719 0.58594-0.35156 0.82031-0.46875 21.68-11.484 30.117-43.477 16.875-64.102-14.18-22.031-40.898-29.062-64.102-16.875-16.523 8.7891-33.047 17.461-49.57 26.25-39.727 20.977-79.336 41.953-119.06 62.93-48.164 25.43-96.445 50.977-144.61 76.406-41.484 21.914-83.086 43.945-124.57 65.859-20.156 10.664-40.664 20.977-60.586 31.992-0.23437 0.11719-0.58594 0.35156-0.82031 0.46875-21.68 11.484-30.117 43.477-16.875 64.102 14.18 22.148 40.898 29.18 64.102 16.875z"/>
 </g>
</svg>
