<?xml version="1.0" encoding="UTF-8"?>
<svg width="1200pt" height="1200pt" version="1.1" viewBox="0 0 1200 1200" xmlns="http://www.w3.org/2000/svg">
 <g fill="#fff">
  <path d="m328.71 263.34 88.801 38.176c6.8945 3.6094 14.941 4.3555 22.383 2.0703 7.4414-2.2812 13.688-7.4102 17.371-14.266 3.6875-6.8594 4.5195-14.895 2.3203-22.363-0.25-0.45703-0.46484-0.93359-0.63672-1.4219-2.0156-5.6953-5.7266-10.637-10.633-14.156l-0.1875-0.13281-72.844-52.5c-11.215-10.887-25.582-17.953-41.047-20.191-15.469-2.2383-31.25 0.46484-45.09 7.7227l-77.961 37.332-104.31 52.145c-19.492 9.7852-41.004 14.875-62.812 14.867h-15.938v281.34c21.461 0.57812 42.672 4.7422 62.758 12.32l86.773 32.438c20.184 7.5273 41.551 11.387 63.094 11.398h49.875v-338.49c0.019531-9.2305 4.5625-17.867 12.164-23.105 7.5977-5.2383 17.285-6.4141 25.918-3.1445z"/>
  <path d="m834.38 459.38c0.57812 53.5-27.035 103.36-72.695 131.25h204.98c1.8438-8.9883 6.2812-17.242 12.762-23.742 6.4805-6.4961 14.723-10.953 23.707-12.82v-189.38c-9-1.8594-17.258-6.3086-23.754-12.809-6.5-6.4961-10.949-14.754-12.809-23.754h-204.88c45.66 27.891 73.273 77.75 72.695 131.25z"/>
  <path d="m384.38 364.69v189.38c9 1.8594 17.258 6.3086 23.754 12.809 6.5 6.4961 10.949 14.754 12.809 23.754h204.88c-45.227-28.305-72.691-77.898-72.691-131.25s27.465-102.95 72.691-131.25h-204.92c-1.8047 9.0156-6.2383 17.297-12.734 23.801-6.5 6.5039-14.773 10.945-23.789 12.762z"/>
  <path d="m1068.8 253.12h-594.79c0.77734 1.4844 1.4727 3.0117 2.082 4.5742 0.33203 0.55469 0.60938 1.1367 0.82422 1.7461 2.8828 8.5859 3.3125 17.809 1.2461 26.625-2.0664 8.8203-6.5469 16.891-12.945 23.305h509.83c2.4883 0 4.8711 0.98828 6.6289 2.7461 1.7578 1.7578 2.7461 4.1406 2.7461 6.6289 0 7.4609 2.9648 14.613 8.2383 19.887 5.2734 5.2734 12.426 8.2383 19.887 8.2383 2.4883 0 4.8711 0.98828 6.6289 2.7461 1.7578 1.7578 2.7461 4.1406 2.7461 6.6289v206.25c0 2.4883-0.98828 4.8711-2.7461 6.6289-1.7578 1.7578-4.1406 2.7461-6.6289 2.7461-7.4609 0-14.613 2.9648-19.887 8.2383-5.2734 5.2734-8.2383 12.426-8.2383 19.887 0 2.4883-0.98828 4.8711-2.7461 6.6289-1.7578 1.7578-4.1406 2.7461-6.6289 2.7461h-562.5c-5.1758 0-9.375-4.1992-9.375-9.375 0-7.4609-2.9648-14.613-8.2383-19.887-5.2734-5.2734-12.426-8.2383-19.887-8.2383-5.1758 0-9.375-4.1992-9.375-9.375v-206.25c0-5.1758 4.1992-9.375 9.375-9.375 7.25-0.058594 14.199-2.8867 19.43-7.9062 5.2305-5.0234 8.3398-11.852 8.6953-19.094 0-0.1875 0.11328-0.33594 0.13281-0.52344 0.015626-0.1875-0.13281-0.39453-0.13281-0.60156 0.042969-0.95312 0.23047-1.8984 0.5625-2.793l-81.992-35.23c-2.7891-0.96875-5.875-0.52344-8.2695 1.1992-2.5508 1.7305-4.0703 4.6211-4.0508 7.707v366.62c0 2.4883 0.98828 4.8711 2.7461 6.6289 1.7578 1.7578 4.1406 2.7461 6.6289 2.7461h750c2.4883 0 4.8711-0.98828 6.6289-2.7461 1.7578-1.7578 2.7461-4.1406 2.7461-6.6289v-393.75c0-2.4883-0.98828-4.8711-2.7461-6.6289-1.7578-1.7578-4.1406-2.7461-6.6289-2.7461z"/>
  <path d="m571.88 459.38c-1.1562 33.543 11.016 66.18 33.852 90.773 22.84 24.598 54.488 39.148 88.023 40.477 33.535-1.3281 65.184-15.879 88.023-40.477 22.836-24.594 35.008-57.23 33.852-90.773 1.1562-33.543-11.016-66.18-33.852-90.773-22.84-24.598-54.488-39.148-88.023-40.477-33.535 1.3281-65.184 15.879-88.023 40.477-22.836 24.594-35.008 57.23-33.852 90.773zm131.25-84.375v10.594c12.43 2.0625 23.477 9.1133 30.582 19.52 1.4688 2.0859 2.0234 4.6836 1.5352 7.1914-0.48828 2.5078-1.9766 4.707-4.125 6.0898-2.1445 1.3828-4.7656 1.8281-7.25 1.2344-2.4844-0.58984-4.6172-2.1719-5.9102-4.3711-5.5977-7.8398-14.75-12.359-24.375-12.039-6.7734-0.53906-13.484 1.6055-18.695 5.9688-5.207 4.3594-8.4922 10.594-9.1484 17.355 0.65234 6.7656 3.9375 13.004 9.1445 17.371 5.207 4.3672 11.922 6.5117 18.699 5.9727 11.746-0.55078 23.234 3.5625 31.961 11.441 8.7266 7.8828 13.988 18.895 14.633 30.633-0.41016 10.125-4.3398 19.785-11.117 27.316-6.7734 7.5352-15.969 12.461-25.988 13.934v10.539c0 5.1758-4.1992 9.375-9.375 9.375-5.1797 0-9.375-4.1992-9.375-9.375v-10.801c-12.52-2.0195-23.66-9.0781-30.828-19.535-1.3477-2.0898-1.8125-4.6289-1.293-7.0625 0.52344-2.4297 1.9922-4.5547 4.0781-5.9062 4.3516-2.8086 10.156-1.5625 12.965 2.7852 5.5977 7.8438 14.746 12.367 24.375 12.059 6.7734 0.53125 13.484-1.6133 18.691-5.9766 5.2031-4.3594 8.4922-10.59 9.1523-17.352-0.66016-6.7578-3.9492-12.988-9.1523-17.352-5.207-4.3594-11.918-6.5039-18.691-5.9727-11.746 0.55078-23.238-3.5625-31.969-11.449-8.7266-7.8828-13.984-18.898-14.625-30.645 0.41797-10.156 4.3828-19.844 11.203-27.379 6.8203-7.5391 16.066-12.445 26.129-13.871v-10.293c0-5.1758 4.1992-9.375 9.375-9.375 5.1797 0 9.375 4.1992 9.375 9.375z"/>
  <path d="m1181.2 1012.5h-159.38c-6.2344-0.027344-12.457 0.60156-18.562 1.875l-252 50.438c-13.336 2.5898-26.953 3.4102-40.5 2.4375l-467.06-34.688c-5.0898-0.33984-9.8594-2.5977-13.34-6.3242-3.4844-3.7266-5.418-8.6367-5.4102-13.738 0.050781-14.902 5.9922-29.184 16.531-39.719 10.535-10.539 24.816-16.48 39.719-16.531h340.88c22.508-0.12109 44.719-5.1758 65.062-14.812 4.3906-2.5273 8.9688-4.7188 13.688-6.5625l105.19-39.562 5.4375-2.0625c5.3594-1.9844 8.9922-7.0039 9.1992-12.719 0.20312-5.7109-3.0586-10.98-8.2617-13.344l-43.688-15.938-158.62-57.938c-3.25-1.832-5.2539-5.2734-5.25-9 0.050781-2.2227 0.76953-4.3789 2.0625-6.1875 14.16-18.801 34.117-32.422 56.785-38.758 22.668-6.3359 46.793-5.0391 68.652 3.6953l36.375 10.875 93 27.75c12.82 3.8242 26.328 4.7852 39.562 2.8125l3-0.375c14.348-2.0234 28.82-3.0273 43.312-3 41.629 0.023438 82.824 8.4414 121.12 24.75 7.125 3 14.25 6.375 21.188 9.9375 12.387 6.2109 26.082 9.3594 39.938 9.1875h51.375z"/>
 </g>
</svg>
