<?xml version="1.0" encoding="UTF-8"?>
<svg width="1200pt" height="1200pt" version="1.1" viewBox="0 0 1200 1200" xmlns="http://www.w3.org/2000/svg">
 <g fill="#fff">
  <path d="m570 792c-2.3984-9.6016-7.1992-19.199-13.199-26.398l-122.4-164.4 152.4-116.4c0 27.602 0 61.199-1.1992 91.199-1.1992 21.602 9.6016 43.199 27.602 56.398l128.4 92.398c4.8008 3.6016 9.6016 6 14.398 7.1992 27.602 10.801 61.199 2.3984 79.199-22.801 21.602-30 14.398-72-15.602-93.602l-99.602-72c2.3984-121.2-3.6016-142.8-6-150-3.6016-13.199-19.199-60-48-99.602l-32.398-43.199c-16.801-22.801-43.199-38.398-72-42-28.801-2.3984-57.602 6-79.199 25.199l-242.39 207.61c-18 14.398-27.602 37.199-28.801 60l-3.6016 306-102 252c-16.801 40.801 3.6016 87.602 44.398 104.4 40.801 16.801 87.602-3.6016 104.4-44.398l108-266.4c3.6016-9.6016 6-19.199 6-28.801v-45.602l50.398 68.398 70.801 258c10.801 38.398 46.801 67.199 86.398 62.398 50.398-4.8008 81.602-54 69.602-100.8z"/>
  <path d="m839.63 33.902c77.461 18.012 125.65 95.41 107.64 172.87-18.016 77.461-95.414 125.65-172.88 107.64-77.461-18.016-125.65-95.414-107.64-172.88 18.016-77.461 95.414-125.65 172.88-107.64"/>
  <path d="m1058.4 866.4c-2.3984-15.602-15.602-27.602-32.398-27.602l-30 0.003906v-22.801c0-31.199-25.199-57.602-57.602-57.602h-38.398c-31.199 0-57.602 25.199-57.602 57.602v22.801h-30c-15.602 0-30 12-32.398 27.602l-40.801 266.4c-3.6016 19.199 12 37.199 32.398 37.199h296.4c20.398 0 34.801-18 32.398-37.199zm-102-27.598h-73.199v-22.801c0-9.6016 7.1992-16.801 16.801-16.801h39.602c9.6016 0 16.801 7.1992 16.801 16.801z"/>
 </g>
</svg>
