<?xml version="1.0" encoding="UTF-8"?>
<svg width="1200pt" height="1200pt" version="1.1" viewBox="0 0 1200 1200" xmlns="http://www.w3.org/2000/svg">
 <g fill="#d2d2d2">
  <path d="m599.97 546c89.055 0 161.25-72.195 161.25-161.25 0-89.059-72.191-161.25-161.25-161.25-89.059 0-161.25 72.191-161.25 161.25 0 89.055 72.191 161.25 161.25 161.25z"/>
  <path d="m879.03 974.99c9.1562-0.28516 18.141-2.543 26.348-6.6133 8.2031-4.0742 15.434-9.8633 21.199-16.98 5.7617-7.1172 9.9258-15.391 12.203-24.262 2.2812-8.875 2.625-18.129 1-27.145-14.703-79.836-56.559-152.13-118.48-204.62-61.922-52.492-140.1-81.949-221.26-83.379-80.426 1.1836-158.01 29.895-219.84 81.344-61.824 51.453-104.15 122.54-119.91 201.41-1.6211 9.0156-1.2812 18.27 0.99609 27.145 2.2812 8.8711 6.4414 17.145 12.207 24.262 5.7656 7.1172 12.996 12.906 21.199 16.98 8.207 4.0703 17.191 6.3281 26.348 6.6133z"/>
 </g>
</svg>
