<?xml version="1.0" encoding="UTF-8"?>
<svg width="1200pt" height="1200pt" version="1.1" viewBox="0 0 1200 1200" xmlns="http://www.w3.org/2000/svg">
 <path d="m382.5 520.69c-1.4766-2.9492-2.1523-6.2344-1.9531-9.5273 0.19531-3.2891 1.2578-6.4727 3.0781-9.2227l201-288.75c3.5078-5.0234 9.2461-8.0195 15.375-8.0195s11.867 2.9961 15.375 8.0195l201 288.75c1.8203 2.75 2.8828 5.9336 3.0781 9.2227 0.19922 3.293-0.47656 6.5781-1.9531 9.5273-1.6094 3.0234-4.0156 5.5469-6.957 7.2969-2.9414 1.7539-6.3086 2.6641-9.7305 2.6406h-401.62c-3.4219 0.023438-6.7891-0.88672-9.7305-2.6406-2.9414-1.75-5.3477-4.2734-6.957-7.2969zm418.31 148.31h-401.62c-3.4219-0.023438-6.7891 0.88672-9.7305 2.6406-2.9414 1.75-5.3477 4.2734-6.957 7.2969-1.4766 2.9492-2.1523 6.2344-1.9531 9.5273 0.19531 3.2891 1.2578 6.4727 3.0781 9.2227l201 288.75c3.5078 5.0234 9.2461 8.0195 15.375 8.0195s11.867-2.9961 15.375-8.0195l201-288.75c1.8203-2.75 2.8828-5.9336 3.0781-9.2227 0.19922-3.293-0.47656-6.5781-1.9531-9.5273-1.6094-3.0234-4.0156-5.5469-6.957-7.2969-2.9414-1.7539-6.3086-2.6641-9.7305-2.6406z" fill="#fff"/>
</svg>
