<?xml version="1.0" encoding="UTF-8"?>
<svg width="1200pt" height="1200pt" version="1.1" viewBox="0 0 1200 1200" xmlns="http://www.w3.org/2000/svg">
 <path d="m96.766 132.03c-29.375-0.92578-34.348 41.625-5.5547 47.508l89.738 19.711 23.062 109.76c0.011719 0.13672 0.035156 0.13672 0.050781 0.22656l114.37 517.95c2.4297 10.996 12.176 18.82 23.438 18.82h647.73c32.48 0.48047 32.48-48.484 0-48h-628.45l-22.078-100.01h683.21c11.258 0 21.004-7.8242 23.438-18.82l81.699-369.96c3.3086-14.98-8.0938-29.18-23.438-29.18-285.68 0.007812-571.36 0-857.04-0.13672l-22.219-105.73c-1.9414-9.2461-9.125-16.492-18.352-18.516l-104.86-23.016c-1.5625-0.36328-3.1562-0.58984-4.7578-0.63672zm398.65 764.64c-46.961 0-85.473 38.676-85.473 85.664 0 46.988 38.512 85.664 85.473 85.664 46.961 0 85.473-38.676 85.473-85.664 0-46.988-38.512-85.664-85.473-85.664zm344.23 0c-46.961 0-85.473 38.676-85.473 85.664 0 46.988 38.512 85.664 85.473 85.664 46.961 0 85.473-38.676 85.473-85.664 0-46.988-38.512-85.664-85.473-85.664z" fill="#d2d2d2"/>
</svg>
