<svg height='100px' width='100px'  fill="#FFFFFF" xmlns="http://www.w3.org/2000/svg" viewBox="0 0 26.458333 26.458334" x="0px" y="0px"><path d="m2.1335902 273.45267c-.6476447-.0204-.7573196.91777-.1224666 1.04747l1.9785882.4346.5084667 2.41999c.000265.003.0007939.003.0011.005l2.5216779 11.41994c.053599.24241.2684844.41496.5167354.41496h14.2815792c.716124.0106.716124-1.069 0-1.05831h-13.8563443l-.4867663-2.20501h15.0639186c.248245.00003.463133-.17252.516737-.41493l1.801346-8.15712c.07297-.33032-.178457-.64338-.516737-.64338-6.2989.00016-12.597774 0-18.8965593-.003l-.4898651-2.33113c-.042789-.20383-.2011594-.36364-.4046046-.40822l-2.3118828-.50746c-.034409-.008-.069548-.013-.104899-.014zm8.7896998 16.85939c-1.0354126 0-1.8845317.85272-1.8845417 1.88876-.000011 1.036.8491131 1.88875 1.8845417 1.88875 1.035424 0 1.884549-.85275 1.884538-1.88875-.00001-1.03604-.84913-1.88876-1.884538-1.88876zm7.589833 0c-1.035411 0-1.884531.85272-1.88454 1.88876-.00001 1.036.849115 1.88875 1.88454 1.88875 1.035426 0 1.884551-.85275 1.88454-1.88875-.000009-1.03604-.849128-1.88876-1.88454-1.88876z" transform="translate(0 -270.54165)"></path></svg>