<?xml version="1.0" encoding="UTF-8"?>
<svg width="1200pt" height="1200pt" version="1.1" viewBox="0 0 1200 1200" xmlns="http://www.w3.org/2000/svg">
 <path d="m1169.6 432.56-412.5-168.75c-5.8008-2.3438-12.387-1.6562-17.574 1.8398s-8.2969 9.3438-8.3008 15.598c0 3.8438-0.25 7.6328-0.57812 11.395l-111.92-60.105v-46.926c23.293-4.7539 43.914-18.184 57.68-37.566 13.77-19.383 19.66-43.273 16.477-66.832-3.1797-23.562-15.195-45.035-33.609-60.074-18.418-15.035-41.859-22.516-65.578-20.922-23.723 1.5938-45.953 12.141-62.191 29.504-16.242 17.367-25.273 40.254-25.277 64.027 0 6.6992 3.5742 12.887 9.375 16.238 5.8008 3.3477 12.949 3.3477 18.75 0 5.8008-3.3516 9.375-9.5391 9.375-16.238 0-14.918 5.9258-29.227 16.477-39.773 10.547-10.551 24.855-16.477 39.773-16.477s29.227 5.9258 39.773 16.477c10.551 10.547 16.477 24.855 16.477 39.773s-5.9258 29.227-16.477 39.773c-10.547 10.551-24.855 16.477-39.773 16.477-4.9727 0-9.7422 1.9766-13.258 5.4922-3.5156 3.5156-5.4922 8.2852-5.4922 13.258v63.789l-111.92 60.102c-0.32812-3.7617-0.57812-7.5469-0.57812-11.391-0.003906-6.2539-3.1133-12.102-8.3008-15.598s-11.773-4.1836-17.574-1.8398l-412.5 168.75c-4.2539 1.7695-7.7109 5.0352-9.7148 9.1836-2.0039 4.1484-2.418 8.8867-1.1602 13.316l75 262.5c1.4258 5.2773 5.1055 9.6562 10.055 11.969 4.9531 2.3125 10.672 2.3242 15.633 0.03125l142.31-63.188v514.88c0.015625 4.9688 1.9961 9.7305 5.5078 13.242 3.5117 3.5117 8.2734 5.4922 13.242 5.5078h472.12c-2.2695-5.9883-3.4141-12.344-3.375-18.75v-318.75c-0.042969-16.68 7.3867-32.504 20.25-43.125l9.9883-8.3398c9.4023 8.6172 19.418 16.535 29.977 23.691l-15.965 13.336c-4.3008 3.5586-6.7773 8.8555-6.75 14.438v318.75c0.015625 4.9688 1.9961 9.7305 5.5078 13.242 3.5117 3.5117 8.2734 5.4922 13.242 5.5078h225c4.9688-0.015625 9.7305-1.9961 13.242-5.5078 3.5117-3.5117 5.4922-8.2734 5.5078-13.242v-318.75c0.027344-5.582-2.4492-10.879-6.75-14.438l-112.5-93.75c-3.3633-2.8164-7.6133-4.3594-12-4.3594s-8.6367 1.543-12 4.3594l-36.375 30.375c18.746 10.246 38.809 17.883 59.625 22.688 6.5664 1.3398 11.918 6.0781 14.039 12.434 2.1211 6.3555 0.69141 13.359-3.75 18.375-4.4453 5.0156-11.223 7.2812-17.789 5.9414-74.676-16.59-155.39-69.809-169.8-157 10.785-7.4883 16.875-20.062 16.059-33.168-0.81641-13.102-8.4219-24.828-20.051-30.918s-25.598-5.6641-36.832 1.1289c-11.238 6.7891-18.109 18.957-18.121 32.086 0.03125 7.0195 2.0352 13.895 5.7812 19.832s9.082 10.707 15.406 13.762c2.0312 13.926 5.5039 27.602 10.367 40.809-21.891-1.8828-41.836-13.32-54.516-31.266-12.676-17.945-16.793-40.566-11.25-61.828 5.5391-21.262 20.176-38.996 40-48.469 19.824-9.4727 42.816-9.7227 62.84-0.67578 20.023 9.043 35.039 26.457 41.039 47.594 5.9961 21.137 2.3711 43.84-9.918 62.055 8.3672 25.445 23.852 47.961 44.625 64.875l44.625-37.312c10.098-8.4453 22.836-13.09 36-13.125 6.3828 0.023438 12.719 1.0977 18.75 3.1875v-49.312l142.31 63.188c4.9609 2.293 10.68 2.2812 15.633-0.03125 4.9492-2.3125 8.6289-6.6914 10.055-11.969l75-262.5c1.2578-4.4297 0.84375-9.168-1.1602-13.316-2.0039-4.1484-5.4609-7.4141-9.7148-9.1836zm-213.38 523.69c6.6992 0 12.887 3.5742 16.238 9.375 3.3477 5.8008 3.3477 12.949 0 18.75-3.3516 5.8008-9.5391 9.375-16.238 9.375h-46.875c-5.1758 0-9.375 4.1992-9.375 9.375s4.1992 9.375 9.375 9.375h18.75c15.625 0.003906 30.223 7.793 38.926 20.77 8.7031 12.98 10.363 29.441 4.4336 43.895-5.9297 14.457-18.676 25.008-33.984 28.137v19.699c0 6.6992-3.5742 12.887-9.375 16.238-5.8008 3.3477-12.949 3.3477-18.75 0-5.8008-3.3516-9.375-9.5391-9.375-16.238v-18.75h-18.75c-6.6992 0-12.887-3.5742-16.238-9.375-3.3477-5.8008-3.3477-12.949 0-18.75 3.3516-5.8008 9.5391-9.375 16.238-9.375h46.875c5.1758 0 9.375-4.1992 9.375-9.375s-4.1992-9.375-9.375-9.375h-18.75c-15.625-0.003906-30.223-7.793-38.926-20.77-8.7031-12.98-10.363-29.441-4.4336-43.895 5.9297-14.457 18.676-25.008 33.984-28.137v-19.699c0-6.6992 3.5742-12.887 9.375-16.238 5.8008-3.3477 12.949-3.3477 18.75 0 5.8008 3.3516 9.375 9.5391 9.375 16.238v18.75zm-356.25-543.75c-26.148-0.035156-51.691-7.875-73.359-22.508-21.668-14.637-38.477-35.406-48.273-59.648l121.63-65.309 121.63 65.305c-9.7969 24.246-26.605 45.016-48.273 59.652-21.668 14.633-47.211 22.473-73.359 22.508z" fill="#fff"/>
</svg>
