<svg xmlns="http://www.w3.org/2000/svg" xmlns:xlink="http://www.w3.org/1999/xlink" version="1.1" x="0px" y="0px" viewBox="0 0 100 100" style="enable-background:new 0 0 100 100;" xml:space="preserve"><g><path d="M56,79.1V67.8l1,1c2,1.9,5.2,1.8,7.1-0.2c1.9-2,1.8-5.2-0.2-7.1l-9.5-9c-0.1-0.1-0.2-0.2-0.3-0.2c-0.1-0.1-0.3-0.2-0.4-0.3   c-0.1-0.1-0.3-0.2-0.5-0.3c-0.1-0.1-0.2-0.1-0.4-0.2c-0.2-0.1-0.4-0.1-0.6-0.2c-0.1,0-0.2-0.1-0.3-0.1c-0.3-0.1-0.6-0.1-1-0.1   c0,0,0,0,0,0c-0.1,0-0.1,0-0.2,0c-0.3,0-0.5,0-0.8,0.1c-0.1,0-0.3,0.1-0.4,0.1c-0.2,0-0.4,0.1-0.5,0.2c-0.1,0.1-0.3,0.1-0.4,0.2   c-0.1,0.1-0.3,0.1-0.4,0.2c-0.1,0.1-0.3,0.2-0.4,0.3c-0.1,0.1-0.2,0.1-0.3,0.2l-9.7,9c-1.1,1-1.6,2.3-1.6,3.7   c0,1.2,0.4,2.4,1.3,3.4c1.9,2,5,2.2,7.1,0.3l1.3-1.2v11.6c0,2.8,2.2,5,5,5S56,81.9,56,79.1z"></path><path d="M74.4,79c-2.8,0-5-2.2-5-5s2.2-5,5-5c2.8,0,5.4-1.1,7.4-3.1c2.1-2,3.2-4.7,3.2-7.6c0-4.3-2.6-8.2-6.5-9.8   c-1.4-0.6-2.5-1.8-2.9-3.3c-0.7-2.5-2-4.7-3.8-6.5c-2.8-2.9-6.6-4.5-10.6-4.5c-1.3,0-2.6,0.2-3.8,0.5c-2.1,0.6-4.4-0.3-5.5-2.2   c-0.7-1.1-1.4-2-2.3-2.9c-2.8-2.9-6.6-4.4-10.6-4.4s-7.8,1.6-10.6,4.4c-2.9,2.9-4.4,6.7-4.4,10.7c0,1,0.1,1.9,0.2,2.7   c0.4,2.3-0.8,4.6-2.9,5.5c-1.1,0.5-2.1,1.2-3.1,2.2c-2,2-3.1,4.7-3.1,7.5C15,64.2,19.7,69,25.6,69c2.8,0,5,2.2,5,5s-2.2,5-5,5   C14.2,79,5,69.7,5,58.3c0-5.5,2.2-10.7,6.1-14.6c0.9-0.9,1.8-1.7,2.8-2.4c0-0.3,0-0.6,0-0.9c0-6.8,2.6-13.1,7.3-17.8   c4.6-4.7,10.9-7.4,17.7-7.4c6.7,0,13,2.6,17.7,7.4c0.5,0.5,1.1,1.1,1.6,1.7c1-0.1,2-0.2,3-0.2c6.7,0,13,2.6,17.7,7.4   c2.4,2.4,4.4,5.4,5.6,8.6c6.5,3.6,10.6,10.4,10.6,18c0,5.5-2.2,10.7-6.1,14.6C85.1,76.8,80,79,74.4,79z"></path></g></svg>