<?xml version="1.0" encoding="UTF-8"?>
<svg width="1200pt" height="1200pt" version="1.1" viewBox="0 0 1200 1200" xmlns="http://www.w3.org/2000/svg">
 <g fill="#fff">
  <path d="m363.6 393.6v-25.199h10.801c9.6016 0 16.801-7.1992 16.801-16.801 0-9.6016-7.1992-16.801-16.801-16.801h-180c-9.6016 0-16.801 7.1992-16.801 16.801 0 9.6016 7.1992 16.801 16.801 16.801h10.801v25.199c0 20.398 8.3984 38.398 24 50.398l26.398 21.602-26.398 21.602c-15.602 12-24 31.199-24 50.398v25.199h-10.801c-9.6016 0-16.801 7.1992-16.801 16.801 0 9.6016 7.1992 16.801 16.801 16.801h180c9.6016 0 16.801-7.1992 16.801-16.801 0-9.6016-7.1992-16.801-16.801-16.801h-10.801v-22.801c0-20.398-8.3984-38.398-24-50.398l-26.398-21.602 26.398-21.602c15.598-14.398 24-32.398 24-52.797zm-45.602 122.4c7.1992 6 10.801 14.398 10.801 24v25.199h-87.602v-25.199c0-9.6016 3.6016-18 10.801-24l32.398-26.398zm10.801-122.4c0 9.6016-3.6016 18-10.801 24l-32.398 26.398-32.398-26.398c-7.1992-6-10.801-14.398-10.801-24v-25.199h87.602l-0.003906 25.199z"/>
  <path d="m436.8 667.2c7.1992-6 8.3984-15.602 2.3984-22.801-6-7.1992-15.602-8.3984-22.801-2.3984-80.398 62.398-204 55.199-277.2-14.398-74.398-66-91.199-187.2-37.199-271.2 25.199-42 66-75.602 112.8-90 46.801-15.602 98.398-15.602 144 2.3984 45.602 16.801 85.199 50.398 109.2 92.398 12 21.602 20.398 44.398 25.199 68.398l2.3984 18 1.1992 18v22.801l-31.199-30c-9.6016-9.6016-25.199-8.3984-34.801 1.1992-9.6016 9.6016-8.3984 25.199 1.1992 34.801l72.004 69.605c4.8008 4.8008 10.801 7.1992 16.801 7.1992s12-2.3984 16.801-7.1992l74.398-70.801c9.6016-9.6016 10.801-25.199 1.1992-34.801-9.6016-9.6016-25.199-10.801-34.801-1.1992l-31.199 30v-24l-1.1992-22.801-3.6016-22.801c-6-28.801-16.801-57.602-32.398-84-30-51.602-79.199-91.199-135.6-111.6-56.398-20.398-118.8-20.398-174 0-56.398 19.199-104.4 60-134.4 110.4-30 52.805-42 114-32.398 171.61 8.3984 57.602 38.398 112.8 82.801 151.2 43.199 38.398 100.8 62.398 158.4 63.602 57.598 3.5977 116.4-15.602 162-51.602z"/>
  <path d="m1167.6 355.2c-10.801-57.602-67.199-82.801-111.6-93.602 1.1992 7.1992 2.3984 14.398 2.3984 22.801 0 22.801-6 43.199-15.602 62.398 21.602 6 39.602 15.602 42 24 1.1992 6 0 9.6016-2.3984 12-15.602 18-64.801 30-102 30h-115.2c-37.199 0-86.398-12-102-30-2.3984-3.6016-4.8008-6-2.3984-12 1.1992-9.6016 19.199-18 42-24-9.6016-19.199-15.602-39.602-15.602-62.398 0-7.1992 1.1992-15.602 2.3984-22.801-45.602 10.801-102 36-111.6 93.602-6 30 1.1992 58.801 21.602 82.801 30 36 79.199 50.398 117.6 56.398-10.801 31.199-33.602 96-49.199 152.4-45.602-1.1992-124.8-2.3984-154.8-2.3984-16.801 0-32.398 7.1992-44.398 19.199-27.602 28.801-40.801 100.8-40.801 217.2l-76.801 40.801c-24 13.199-33.602 43.199-21.602 67.199 8.3984 16.801 26.398 26.398 44.398 26.398 8.3984 0 15.602-1.1992 22.801-6l355.2-184.8c44.398-19.199 70.801-46.801 80.398-74.398 19.199-48 67.199-198 84-254.4 38.398-4.8008 98.398-18 130.8-58.801 19.203-22.797 26.406-50.398 20.406-81.598zm-540 474c1.1992-34.801 4.8008-67.199 9.6016-85.199 45.602 1.1992 122.4 2.3984 148.8 2.3984z"/>
  <path d="m1022.4 284.4c0 55.008-44.59 99.602-99.598 99.602-55.008 0-99.602-44.594-99.602-99.602 0-55.008 44.594-99.598 99.602-99.598 55.008 0 99.598 44.59 99.598 99.598"/>
 </g>
</svg>
