<?xml version="1.0" encoding="UTF-8"?>
<svg width="1200pt" height="1200pt" version="1.1" viewBox="0 0 1200 1200" xmlns="http://www.w3.org/2000/svg">
 <g fill="#fff">
  <path d="m818.23 131.4h-684.52c-45.43 0-82.285 36.688-82.285 81.773v122.23h660.69c1.3711-76.629 39.602-147.6 103.37-190.63 6.3438-4.2852 13.027-8.0547 19.543-11.656-5.4883-1.2031-11.145-1.7188-16.801-1.7188zm-647.83 135.54c-18.574 0-33.945-14.941-33.945-33.516 0-18.785 15.371-33.73 33.945-33.73 18.574 0 33.941 14.945 33.941 33.73 0 18.574-15.371 33.516-33.941 33.516zm119.55 0c-18.785 0-33.945-14.941-33.945-33.516 0-18.785 15.156-33.73 33.945-33.73 18.574 0 33.73 14.945 33.73 33.73 0 18.574-15.156 33.516-33.73 33.516zm119.34 0c-18.785 0-33.945-14.941-33.945-33.516 0-18.785 15.156-33.73 33.945-33.73 18.574 0 33.941 14.945 33.941 33.73 0.003907 18.574-15.367 33.516-33.941 33.516z"/>
  <path d="m459.33 740.35h332.2v-174.9l-10.938 2.8398c-4.3203 1.1133-8.6367 1.6562-12.957 1.6562-8.6602 0-16.883-2.3086-24.246-6.293v12.895c0 5.1016-4.2539 9.3555-9.5273 9.3555h-36.059v116.52c0 5.2734-4.2539 9.3555-9.5273 9.3555h-125.54c-5.2734 0-9.5273-4.082-9.5273-9.3555v-116.52h-36.23c-5.1016 0-9.3555-4.2539-9.3555-9.3555v-45.246c0-5.1055 4.2539-9.3555 9.3555-9.3555h65.828c0 23.473 19.223 42.527 42.695 42.527 23.473 0 42.527-19.051 42.527-42.527h48.738c-0.33984-5.3438-0.14844-10.746 1.2266-16.117l3.207-12.289h-261.88z"/>
  <path d="m845.83 551.4-20.227 5.1445v200.74c0 9.4297-7.7148 17.145-17.145 17.145h-366.17c-9.2578 0-16.973-7.7148-16.973-17.145v-280.8c0-9.2578 7.7148-16.973 16.973-16.973h287.83l4.8008-18.684c-10.969-22.973-17.828-46.801-21.086-71.484h-662.4v617.48c0 45.086 36.859 81.773 82.285 81.773h684.52c45.43 0 82.285-36.688 82.285-81.773v-417.6c-19.027-3.7695-37.371-9.5977-54.688-17.828zm-702.34-91.887h212.91c9.4297 0 16.973 7.7148 16.973 16.973 0 9.4297-7.543 16.973-16.973 16.973h-212.91c-9.4297 0-16.973-7.543-16.973-16.973 0.003906-9.2578 7.5469-16.973 16.973-16.973zm0 93.602h212.91c9.4297 0 16.973 7.543 16.973 16.973 0 9.4297-7.543 16.973-16.973 16.973l-212.91-0.003906c-9.4297 0-16.973-7.543-16.973-16.973 0.003906-9.4258 7.5469-16.969 16.973-16.969zm0 93.43h212.91c9.4297 0 16.973 7.7148 16.973 17.145s-7.543 16.973-16.973 16.973l-212.91-0.003906c-9.4297 0-16.973-7.543-16.973-16.973 0.003906-9.4258 7.5469-17.141 16.973-17.141zm0 93.77h212.91c9.4297 0 16.973 7.543 16.973 16.973 0 9.4297-7.543 17.145-16.973 17.145h-212.91c-9.4297 0-16.973-7.7148-16.973-17.145 0.003906-9.4297 7.5469-16.973 16.973-16.973zm664.97 221.14h-664.97c-9.4297 0-16.973-7.7148-16.973-16.973 0-9.4297 7.543-16.973 16.973-16.973h664.97c9.4297 0 17.145 7.543 17.145 16.973 0 9.2578-7.7148 16.973-17.145 16.973zm0-93.602h-664.97c-9.4297 0-16.973-7.543-16.973-16.973 0-9.2578 7.543-16.973 16.973-16.973h664.97c9.4297 0 17.145 7.7148 17.145 16.973 0 9.4297-7.7148 16.973-17.145 16.973z"/>
  <path d="m947.32 138.94c-112.97 0-201.26 91.199-201.26 200.57 0 33.43 8.5703 66.688 25.371 97.199l-20.227 77.656c-3.2578 12.516 8.2305 24 20.742 20.742l78-20.227c29.316 16.457 62.742 25.027 97.371 25.027 110.91 0 201.26-89.828 201.26-200.4-0.003907-110.57-90.344-200.57-201.26-200.57zm61.371 289.54c-8.2266 0-15.258-5.1445-17.828-12.516-0.34375 0.17188-0.6875 0.17188-1.1992 0.17188h-56.059c-0.51562 0-0.85547 0-1.1992-0.17188-2.5703 7.3711-9.6016 12.516-17.828 12.516-10.629 0-19.027-8.3984-19.027-19.027 0-6 2.9141-11.656 7.3711-14.914-0.34375-0.34375-0.34375-0.68359-0.51562-1.0273-0.51562-1.7148-42.855-132.34-42.855-132.34l-34.285-8.4023c-3.5977-0.85547-5.8281-4.457-4.9727-8.0547 0.85547-3.6016 4.457-5.8281 8.0547-4.9727l37.887 9.2578c2.2305 0.51562 4.1133 2.2305 4.8008 4.457l9.9414 30.516h128.74c11.312 0 19.543 10.973 16.457 21.945l-14.059 48c-2.0586 7.3711-8.7422 12.344-16.457 12.344l-88.113-0.003907 7.543 23.145c0.17187 0.34375 0.17187 0.68359 0.17187 1.0273 7.8867 0.34375 14.57 5.4844 17.145 12.516 0.34375-0.17187 0.6875-0.17187 1.1992-0.17187h56.059c0.51562 0 0.85547 0 1.1992 0.17187 2.7422-7.3711 9.6016-12.516 17.828-12.516 10.457 0 19.027 8.5703 19.027 19.027 0 10.629-8.5703 19.027-19.027 19.027z"/>
 </g>
</svg>
