<?xml version="1.0" encoding="UTF-8"?>
<svg width="1200pt" height="1200pt" version="1.1" viewBox="0 0 1200 1200" xmlns="http://www.w3.org/2000/svg">
    <g fill="#fff">
        <path
            d="m496.8 1135.6c-72.371 0-142.52-23.078-201.79-66.832-73.109-54.094-120.74-133.48-134.21-223.38-9.4141-62.586-1.293-126.28 23.629-184.25 24.184-56.309 62.953-105.05 112.43-141.23 18.645-13.477 44.676-9.6016 58.152 9.0469 13.477 18.645 9.6016 44.676-9.0469 58.152-77.723 56.676-117.05 151.02-102.83 245.91 19.02 127.57 129.05 219.32 254.22 219.32 12.555 0 25.477-0.92188 38.215-2.7695 84-12.555 156.18-65.723 193.48-142.15 9.9688-20.676 34.891-29.355 55.57-19.199 20.676 9.9688 29.355 34.891 19.199 55.57-49.109 101.17-144.92 171.51-255.88 188.12-17.172 2.3945-34.156 3.6875-51.141 3.6875z"/>
        <path
            d="m350.03 209.72c-5.5391-12.738-8.4922-26.398-8.4922-41.352 0-14.215 2.7695-27.508 8.3086-40.246 5.5391-12.738 13.109-23.629 22.34-32.863 9.2305-9.2305 20.309-16.801 32.863-22.34 12.738-5.5391 26.398-8.3086 41.355-8.3086 14.215 0 27.508 2.7695 40.246 8.3086 12.738 5.5391 23.816 13.109 33.602 22.34 9.6016 9.2305 17.168 20.309 22.34 32.863 5.168 12.738 7.7539 26.031 7.7539 40.246 0 28.984-9.9688 53.723-30.094 74.215-20.125 20.492-44.676 30.645-73.66 30.645-14.953 0-28.617-2.7695-41.355-8.3086s-23.629-13.109-32.863-22.34c-9.4219-9.2266-16.805-20.305-22.344-32.859zm687.51 742.71-170.95-297.05c-5.9062-12.738-14.953-22.707-26.77-30.094-12-7.3828-25.293-11.078-40.246-11.078l-189.97 0.003906-22.34-109.48h148.62c8.8633 0.73828 17.539-0.73828 25.66-4.4297 8.125-3.6914 14.586-9.6016 19.016-17.906 5.9062-10.34 7.1992-21.602 3.875-33.414-3.3242-12-10.707-20.863-21.785-26.77-5.9062-3.6914-12.738-5.5391-20.125-5.5391h-174.28l-9.9688-51.324c0-1.4766-0.18359-2.3984-0.55469-2.7695-0.37109-0.37109-0.55469-1.293-0.55469-2.7695l-1.1094-3.3242c-5.168-17.168-15.137-31.199-29.539-42.461-14.586-11.078-31.383-16.801-50.77-16.801-23.816 0-43.938 7.9375-60.371 24-16.43 16.062-24.555 35.262-24.555 57.602 0 3.6914 0.37109 6.6445 1.1094 8.8633h-1.1094l61.477 295.94c2.9531 17.168 11.262 31.016 24.555 41.906 13.477 10.891 28.984 16.246 46.891 16.246 5.168 0 9.2305-0.37109 12.371-1.1094h253.48l147.51 256.98c4.4297 9.6016 11.078 17.539 20.125 23.445 8.8633 5.9062 19.383 8.8633 31.199 8.8633 14.953 0 27.691-5.168 38.586-15.691 10.707-10.34 16.246-23.078 16.246-38.031-0.17578-8.4922-2.0234-16.246-5.7148-23.816z"/>
    </g>
</svg>
