<?xml version="1.0" encoding="utf-8"?>
<!-- Generator: Adobe Illustrator 26.0.2, SVG Export Plug-In . SVG Version: 6.00 Build 0)  -->
<svg version="1.1" id="Layer_1" xmlns="http://www.w3.org/2000/svg" xmlns:xlink="http://www.w3.org/1999/xlink" x="0px" y="0px"
	 viewBox="0 0 847 847" style="enable-background:new 0 0 847 847;" xml:space="preserve">
<style type="text/css">
	.st0{fill-rule:evenodd;clip-rule:evenodd;fill:#FFFFFF;}
</style>
<g>
	<path class="st0" d="M809,735L497,423l312-311c20-21,20-54,0-74l0,0c-20-21-54-21-74,0L423,349L112,38c-21-21-54-21-74,0l0,0
		c-21,20-21,53,0,74l311,311L38,735c-21,20-21,54,0,74l0,0c20,20,53,20,74,0l311-312l312,312c20,20,54,20,74,0l0,0
		C829,789,829,755,809,735z"/>
</g>
</svg>
